<svg xmlns="http://www.w3.org/2000/svg" xmlns:xlink="http://www.w3.org/1999/xlink" viewBox="0 0 630 542"><defs><style>.cls-1{fill:none;}.cls-2{fill:#0e0e10;}.cls-3{fill:#bcaf8e;}.cls-4{fill:#c4b493;}.cls-5{fill:#b28b60;}.cls-6{fill:#0f0f11;}.cls-7{fill:#b18b63;}.cls-8{fill:#c7b992;}.cls-9{fill:#cfc6ad;}.cls-10{clip-path:url(#clip-path);}.cls-11,.cls-12{fill:#fff;}.cls-12{font-size:38.54px;font-family:BebasNeueRegular, Bebas Neue;}</style><clipPath id="clip-path" transform="translate(0 -28.5)"><rect class="cls-1" x="20.5" width="589" height="589"/></clipPath></defs><g id="Capa_2" data-name="Capa 2"><g id="Capa_1-2" data-name="Capa 1"><path class="cls-2" d="M12.52,283.4H626c4.12.79,4.91,3.46,3,9.1-4.4,12.78-9.1,25.45-13.28,38.32a16.13,16.13,0,0,0,0,9.31c4.14,12.69,8.75,25.19,13.19,37.76,2.12,6,1.34,8.87-3,9.71L4.71,387.38C-.13,386.77-1,384.19,1.2,378c4.44-12.78,9.12-25.46,13.37-38.31a14.19,14.19,0,0,0,0-8.29C10.23,318.17,5.45,305.14.9,292c-2.15-6.18-.54-8.57,5.75-8.6Z" transform="translate(0 -28.5)"/><path class="cls-2" d="M586,299.5c0,149.67-121.33,271-271,271S44,449.17,44,299.5s121.33-271,271-271S586,149.83,586,299.5Z" transform="translate(0 -28.5)"/><path class="cls-3" d="M56.89,288.18c3.41-132.84,116.67-246.52,255.56-247,69.05-.24,129.27,23.12,179.47,70.7s76.28,106.52,80.64,176H593c5.17,0,10.34,0,15.5,0,6.42.06,8,2.3,5.74,8.5-4.2,11.58-8.68,23.06-12.66,34.71a14,14,0,0,0,0,8.45c3.95,11.49,8.35,22.82,12.58,34.21,2.45,6.61.83,9-6.11,9.05-14.84,0-29.67.13-44.5-.08-3.4,0-4.89.89-6.09,4.16C535.87,445.79,498.11,491.39,444,523c-48.9,28.59-101.84,39.36-158.1,33.07-60.92-6.82-112.74-32.62-155.66-76.25a251.1,251.1,0,0,1-57.89-92.42c-1.39-3.88-3.13-5-7.07-5-14.5.22-29,.11-43.5.07-6.84,0-8.29-2.11-5.89-8.67,4.23-11.58,8.69-23.07,12.74-34.71a12.2,12.2,0,0,0,0-7.51C24.52,319.69,20,307.88,15.62,296c-2-5.6-.51-7.77,5.49-7.8C32.92,288.14,44.73,288.18,56.89,288.18Z" transform="translate(0 -28.5)"/><circle class="cls-4" cx="315" cy="271" r="261.5"/><circle class="cls-2" cx="315" cy="271" r="250.25"/><polygon class="cls-4" points="53.5 259.68 576.25 259.42 576.5 354.38 53.5 354.08 53.5 259.68"/><path class="cls-5" d="M38.35,294.91H597.4c3.76.62,4.48,2.7,2.7,7.1-4,9.95-8.29,19.82-12.1,29.84a10.83,10.83,0,0,0,0,7.26c3.77,9.88,8,19.62,12,29.41,1.93,4.67,1.22,6.91-2.77,7.57l-566-.18c-4.42-.47-5.18-2.48-3.21-7.34,4-9.95,8.32-19.83,12.19-29.84a9.53,9.53,0,0,0,0-6.45c-4-10.28-8.33-20.43-12.48-30.65-2-4.82-.49-6.68,5.24-6.7Z" transform="translate(0 -28.5)"/><circle class="cls-6" cx="315" cy="271" r="152.25"/><circle class="cls-4" cx="315" cy="271" r="140.5"/><rect class="cls-7" x="223.71" y="194.46" width="177" height="149"/><path d="M290.11,412.57c-19.51,9.94-40.65-.63-44.41-23.4H238c-18,0-29.84-10.94-31.23-28.79a13.93,13.93,0,0,1-.05-2.5c.67-7.28-.71-12.85-6.95-18.46-11.48-10.31-11-26-.63-40-4.75-5.65-7.67-12.13-7.67-19.77,0-10.06,4-18.14,12.07-24a7,7,0,0,0,3.22-6.56,90.19,90.19,0,0,1,.83-15.43c2.39-14.25,13.94-23.79,28.37-23.93,3.16,0,6.33,0,9.93,0,1.65-10.43,6.43-18.92,16-23.89s18.92-4.21,28.1.63c15.38-20.21,38.59-16.1,49.87.05,9.28-4.77,18.86-5.63,28.45-.56,9.42,5,14.1,13.25,15.76,23.77,3.34,0,6.49,0,9.63,0,16.17.21,28.05,11.42,29.25,27.57a14,14,0,0,1,.09,2.5c-.8,8,1.09,14.18,7.69,20.26,11,10.13,10.35,24.6.95,38.28,2.28,6,5.2,11.28,6.28,17,2.21,11.52-2.3,21-11.52,27.93-2.68,2-3.35,4-3.4,7-.09,5.47.06,11.07-1,16.38-2.81,13.52-13.66,22.16-27.42,22.55-3.48.1-6.95,0-10.36,0-2.8,20.21-22.21,34.05-44.32,23.4C326.25,431,302.7,430.3,290.11,412.57Zm124.75-113c3.59-2.76,7-4.58,9.38-7.35a19.78,19.78,0,0,0-6.69-30.77c-3.07-1.46-4.2-3.12-4.08-6.41.2-5.49.18-11-.08-16.5-.54-11.6-8.35-19.08-20-19.32-3.49-.08-7,0-10.49,0-8.12,0-8.12,0-8.58-8.06-.48-8.37-6-15.67-13.53-18a20,20,0,0,0-21.59,6.46,20.3,20.3,0,0,1-3.52,2.81,32.22,32.22,0,0,1-1.41-4c-2-9.31-10.27-16.29-19.07-16.08-10.2.25-17.71,6.67-19.54,16.6a40.17,40.17,0,0,1-1.66,4.92c-1.81-2.2-2.79-3.44-3.83-4.63-5.78-6.64-14.48-9-22.12-5.71-8.51,3.71-12.86,10.34-12.33,19.74.25,4.43-1.12,6.4-5.9,6a125.54,125.54,0,0,0-14,0c-10.14.28-17.56,6.45-18.89,16.47a149.61,149.61,0,0,0-.78,19.42c0,3.16-.69,4.93-3.93,6.42-12.09,5.54-15.11,20.21-6.39,30.52,2.36,2.79,5.51,4.91,8.56,7.57a17.33,17.33,0,0,1-2.4,1.92c-7.54,3.95-11.28,10.34-11,18.67s4.71,14.22,12.28,17.93a6.11,6.11,0,0,1,2.71,4.37c.34,5,0,10,.17,15,.48,14.53,8.91,23.23,22.84,22.19,3.82-.29,7.68.17,11.49-.12,4.05-.31,5.48,1.46,5.2,5.23a27.12,27.12,0,0,0,0,3,19.26,19.26,0,0,0,13.39,18,19.87,19.87,0,0,0,21.2-6.23c1-1.18,2.07-2.32,4-4.5,2.27,12.8,8,21.49,20.76,21.4s18.17-9,20.53-21.54l4.12,4.82c8.22,9.47,22.64,9.63,29.94-.36,2.66-3.64,3.9-8.73,4.54-13.33.89-6.31.38-6.39,7-6.4h11c13.12,0,20.8-7.39,21.27-20.56.18-5,.28-10,0-15-.17-3.45.89-5.19,4.24-6.71,7.28-3.31,11-9.48,11.1-17.52.13-7.84-3.3-13.76-10.07-17.74C417.58,301.44,416.46,300.64,414.86,299.59Z" transform="translate(0 -28.5)"/><path class="cls-7" d="M414.86,299.59c1.6,1.05,2.72,1.85,3.9,2.55,6.77,4,10.2,9.9,10.07,17.74-.14,8-3.82,14.21-11.1,17.52-3.35,1.52-4.41,3.26-4.24,6.71.24,5,.14,10,0,15-.47,13.17-8.15,20.53-21.27,20.56h-11c-6.58,0-6.07.09-7,6.4-.64,4.6-1.88,9.69-4.54,13.33-7.3,10-21.72,9.83-29.94.36l-4.12-4.82c-2.36,12.57-7.9,21.44-20.53,21.54s-18.49-8.6-20.76-21.4c-2,2.18-3,3.32-4,4.5a19.87,19.87,0,0,1-21.2,6.23,19.26,19.26,0,0,1-13.39-18,27.12,27.12,0,0,1,0-3c.28-3.77-1.15-5.54-5.2-5.23-3.81.29-7.67-.17-11.49.12-13.93,1-22.36-7.66-22.84-22.19-.17-5,.17-10-.17-15a6.11,6.11,0,0,0-2.71-4.37c-7.57-3.71-12-9.55-12.28-17.93s3.49-14.72,11-18.67a17.33,17.33,0,0,0,2.4-1.92c-3-2.66-6.2-4.78-8.56-7.57-8.72-10.31-5.7-25,6.39-30.52,3.24-1.49,3.93-3.26,3.93-6.42a149.61,149.61,0,0,1,.78-19.42c1.33-10,8.75-16.19,18.89-16.47a125.54,125.54,0,0,1,14,0c4.78.4,6.15-1.57,5.9-6-.53-9.4,3.82-16,12.33-19.74,7.64-3.34,16.34-.93,22.12,5.71,1,1.19,2,2.43,3.83,4.63a40.17,40.17,0,0,0,1.66-4.92c1.83-9.93,9.34-16.35,19.54-16.6,8.8-.21,17,6.77,19.07,16.08a32.22,32.22,0,0,0,1.41,4,20.3,20.3,0,0,0,3.52-2.81,20,20,0,0,1,21.59-6.46c7.57,2.34,13.05,9.64,13.53,18,.46,8.07.46,8.07,8.58,8.06,3.5,0,7-.05,10.49,0,11.63.24,19.44,7.72,20,19.32.26,5.49.28,11,.08,16.5-.12,3.29,1,4.95,4.08,6.41a19.78,19.78,0,0,1,6.69,30.77C421.9,295,418.45,296.83,414.86,299.59Zm-10.79-9.86c11.06-1.84,14.67-4.33,14.48-10.42-.06-2-.82-4.88-2.26-5.78-3.58-2.26-7.74-3.61-12.6-5.73v-4.16c0-7.5.11-15,0-22.49-.15-8.19-3.56-11.54-11.61-11.66-4.83-.07-9.66,0-14.49,0h-13c0-3.74.05-6.55,0-9.36s-.09-5.68-.42-8.48c-.65-5.51-5.05-9.29-10.11-8.93s-8.52,4.28-8.69,9.79c-.14,4.33-.21,8.67,0,13,.14,3.09-1,4.17-4.06,4-4.16-.17-8.33-.14-12.49,0-3,.1-4.14-1.05-4.09-4.08.12-7.33.09-14.66,0-22-.11-6.57-4.17-11-9.82-10.9s-9.38,4.34-9.43,11.17c-.05,7.33.08,14.66-.13,22,0,1.25-1.33,3.5-2.13,3.54-5.93.3-11.88.17-18.34.17,0-5.55.09-10.36,0-15.16-.17-6.85-3.92-10.9-9.81-10.8s-9.39,4.35-9.42,11.16c0,4.77,0,9.53,0,14.84-9,0-17.34,0-25.63,0-10.94.05-13.49,2.62-13.51,13.53,0,8.76,0,17.52,0,26.17-11.75,1.38-15.48,3.7-15.53,9.87-.08,10.56,8.33,9.63,15.25,10.42v20.16c-7.41-.23-14.94.76-15.13,9.74-.2,9.48,7.68,10.11,15.38,10.05,0,9.5,0,18.46,0,27.42,0,9.73,3,12.74,12.92,12.77,8.63,0,17.26,0,26.24,0V378c0,2.84-.05,5.67,0,8.5.17,6.31,4,10.59,9.55,10.67s9.51-4.15,9.73-10.49c.12-3.49-.21-7,.12-10.48.12-1.17,1.62-3.09,2.57-3.14,5.76-.3,11.54-.15,17.88-.15,0,8,0,15.28,0,22.57.05,6.94,4,11.47,9.84,11.38,5.25-.08,9.28-4.87,9.4-11.42.11-6.17-.08-12.34.12-18.49.05-1.36,1.15-3.81,1.86-3.85,6.06-.31,12.14-.17,18.69-.17,0,5.35-.12,9.82,0,14.29a9.38,9.38,0,0,0,8.56,9.4A9.24,9.24,0,0,0,364,388.37a99.92,99.92,0,0,0,.52-11c.07-2.58,0-5.17,0-8,10.17,0,19.66.16,29.13-.06,6.07-.15,9.13-3.14,9.85-9.09a64.43,64.43,0,0,0,.19-7.49c0-7.62,0-15.23,0-22.69,11.9-2.52,15.13-4.92,15-10.8-.17-5.61-4.07-8.32-14.6-10Z" transform="translate(0 -28.5)"/><path d="M404.07,289.73V309.3c10.53,1.65,14.43,4.36,14.6,10,.17,5.88-3.06,8.28-15,10.8,0,7.46,0,15.07,0,22.69a64.43,64.43,0,0,1-.19,7.49c-.72,5.95-3.78,8.94-9.85,9.09-9.47.22-19,.06-29.13.06,0,2.84.06,5.43,0,8a99.92,99.92,0,0,1-.52,11,9.24,9.24,0,0,1-10.12,8.25,9.38,9.38,0,0,1-8.56-9.4c-.15-4.47,0-8.94,0-14.29-6.55,0-12.63-.14-18.69.17-.71,0-1.81,2.49-1.86,3.85-.2,6.15,0,12.32-.12,18.49-.12,6.55-4.15,11.34-9.4,11.42-5.84.09-9.79-4.44-9.84-11.38,0-7.29,0-14.58,0-22.57-6.34,0-12.12-.15-17.88.15-.95.05-2.45,2-2.57,3.14-.33,3.46,0,7-.12,10.48-.22,6.34-4.22,10.57-9.73,10.49s-9.38-4.36-9.55-10.67c-.07-2.83,0-5.66,0-8.5v-8.36c-9,0-17.61,0-26.24,0-9.87,0-12.91-3-12.92-12.77,0-9,0-17.92,0-27.42-7.7.06-15.58-.57-15.38-10.05.19-9,7.72-10,15.13-9.74V289.49c-6.92-.79-15.33.14-15.25-10.42,0-6.17,3.78-8.49,15.53-9.87,0-8.65,0-17.41,0-26.17,0-10.91,2.57-13.48,13.51-13.53,8.29,0,16.58,0,25.63,0,0-5.31,0-10.07,0-14.84,0-6.81,3.63-11.07,9.42-11.16s9.64,3.95,9.81,10.8c.11,4.8,0,9.61,0,15.16,6.46,0,12.41.13,18.34-.17.8,0,2.1-2.29,2.13-3.54.21-7.33.08-14.66.13-22,.05-6.83,3.71-11.11,9.43-11.17s9.71,4.33,9.82,10.9c.12,7.33.15,14.66,0,22,0,3,1.1,4.18,4.09,4.08,4.16-.15,8.33-.18,12.49,0,3,.12,4.2-1,4.06-4-.18-4.32-.11-8.66,0-13,.17-5.51,3.75-9.44,8.69-9.79s9.46,3.42,10.11,8.93c.33,2.8.35,5.65.42,8.48s0,5.62,0,9.36h13c4.83,0,9.66-.06,14.49,0,8.05.12,11.46,3.47,11.61,11.66.13,7.49,0,15,0,22.49v4.16c4.86,2.12,9,3.47,12.6,5.73,1.44.9,2.2,3.78,2.26,5.78C418.74,285.4,415.13,287.89,404.07,289.73Zm-6.44-13.91c0-11.37,0-22,0-32.63,0-7.53-.32-7.82-8-7.83-10.29,0-20.57,0-31.25,0,0-7.21.05-13.86,0-20.5,0-2.64.26-5.84-3.63-5.88S351,212,351,214.75c0,6.77,0,13.54,0,20.35H318.54v-5.2c0-8.66.17-17.34-.17-26-.07-1.76-1.85-4.64-3.26-4.91-3.45-.69-3.72,2.34-3.75,5,0,1.67,0,3.33,0,5v26H278.69c0-6.54,0-12.68,0-18.82,0-2.75.72-6.48-3.37-6.54-4.48-.06-3.65,3.89-3.68,6.77-.07,6.11,0,12.23,0,18.72-2.21.11-3.83.25-5.45.26-9.33,0-18.66.12-28,0-4.15,0-6,1.57-6,5.93.18,9.66.06,19.33,0,29,0,1.75-.21,3.5-.34,5.48-3.92,0-7.31-.39-10.54.16-1.66.28-3,2.24-4.52,3.45,1.5,1.18,2.89,3.13,4.54,3.39,3.36.54,6.86.16,10.43.16V316c-3.66,0-6.9-.42-9.95.16-1.81.35-3.31,2.3-5,3.52,1.67,1.21,3.17,2.88,5,3.49s4,.25,5.95.06c3.54-.33,4.55,1.15,4.48,4.62-.19,10,.11,20-.05,30-.07,4.12,1.65,5.75,5.59,5.71,7.5-.07,15,0,22.5,0H271.6c0,7.85,0,14.82,0,21.79,0,2.55-.15,5.51,3.36,5.58,3.87.08,3.69-3.07,3.69-5.78,0-7,0-13.91,0-21.2h32.7v8.32c0,8-.18,16,.17,24,.07,1.53,2.25,3,3.46,4.46,1.18-1.52,3.33-3,3.4-4.56.36-7.48.17-15,.17-22.49v-9.75H351c0,7,0,13.66,0,20.3,0,2.9-.23,6.35,3.76,6.26s3.6-3.6,3.6-6.46c0-6.62,0-13.24,0-20.18,2.3-.11,4.09-.26,5.88-.27,9.17,0,18.34-.12,27.5,0,4.29.07,6.05-1.63,5.89-5.94-.2-5.49,0-11,0-16.5V323.3h9.1c2.8,0,5.8-.19,5.72-3.89-.07-3.45-3-3.42-5.56-3.41-2.93,0-5.87,0-8.93,0V283.25a40.21,40.21,0,0,0,5.21-.36c3.32-.68,9.12,2.34,9.1-3.62,0-5.53-5.61-2.82-8.83-3.4A37.28,37.28,0,0,0,397.63,275.82Z" transform="translate(0 -28.5)"/><path class="cls-8" d="M397.63,275.82a37.28,37.28,0,0,1,5.81.05c3.22.58,8.82-2.13,8.83,3.4,0,6-5.78,2.94-9.1,3.62a40.21,40.21,0,0,1-5.21.36V316c3.06,0,6,0,8.93,0,2.59,0,5.49,0,5.56,3.41.08,3.7-2.92,3.89-5.72,3.89h-9.1v17.85c0,5.5-.18,11,0,16.5.16,4.31-1.6,6-5.89,5.94-9.16-.15-18.33,0-27.5,0-1.79,0-3.58.16-5.88.27,0,6.94,0,13.56,0,20.18,0,2.86.35,6.36-3.6,6.46s-3.77-3.36-3.76-6.26c0-6.64,0-13.28,0-20.3H318.55v9.75c0,7.5.19,15-.17,22.49-.07,1.57-2.22,3-3.4,4.56-1.21-1.49-3.39-2.93-3.46-4.46-.35-8-.17-16-.17-24v-8.32h-32.7c0,7.29,0,14.24,0,21.2,0,2.71.18,5.86-3.69,5.78-3.51-.07-3.36-3-3.36-5.58,0-7,0-13.94,0-21.79H260.37c-7.5,0-15,0-22.5,0-3.94,0-5.66-1.59-5.59-5.71.16-10-.14-20,.05-30,.07-3.47-.94-4.95-4.48-4.62-2,.19-4.15.54-5.95-.06s-3.36-2.28-5-3.49c1.65-1.22,3.15-3.17,5-3.52,3-.58,6.29-.16,9.95-.16V283c-3.57,0-7.07.38-10.43-.16-1.65-.26-3-2.21-4.54-3.39,1.5-1.21,2.86-3.17,4.52-3.45,3.23-.55,6.62-.16,10.54-.16.13-2,.33-3.73.34-5.48,0-9.66.16-19.33,0-29-.07-4.36,1.81-6,6-5.93,9.34.08,18.67,0,28,0,1.62,0,3.24-.15,5.45-.26,0-6.49-.05-12.61,0-18.72,0-2.88-.8-6.83,3.68-6.77,4.09.06,3.35,3.79,3.37,6.54.05,6.14,0,12.28,0,18.82h32.64V209c0-1.67,0-3.33,0-5,0-2.63.3-5.66,3.75-5,1.41.27,3.19,3.15,3.26,4.91.34,8.65.17,17.33.17,26v5.2H351c0-6.81,0-13.58,0-20.35,0-2.72-.16-5.81,3.72-5.77s3.61,3.24,3.63,5.88c.07,6.64,0,13.29,0,20.5,10.68,0,21,0,31.25,0,7.66,0,8,.3,8,7.83C397.64,253.82,397.63,264.45,397.63,275.82Zm-86.69-33c-10,0-19.68-.09-29.32.13-1,0-2.74,1.88-2.76,2.92-.23,9-.23,18-.05,27,0,1,1.53,2.79,2.38,2.8,9.78.2,19.57.13,29.75.13Zm-71.24,33c10,0,19.49.13,28.94-.18,1,0,2.78-2.49,2.84-3.88.3-6.81.2-13.65.12-20.48-.12-9.57,1.38-8.41-8.5-8.46-7.75,0-15.5,0-23.4,0Zm150.7,40c0-10.34.11-20.12-.15-29.9,0-1-2.19-2.75-3.41-2.81-6.48-.29-13-.21-19.46-.13-10.36.12-8.88-1.58-9,8.92-.08,7.91,0,15.82,0,23.92ZM311,282.93c-5.95,0-11.57-.07-17.18,0C289,283,282.51,281.55,280,284s-1.14,9-1.24,13.79c-.13,5.93,0,11.86,0,17.86H311Zm-31.62,40.7v32.22H311V323.63Zm71.35-80.41H319v32.22h31.76ZM239.73,316c10.06,0,19.54.11,29-.16,1,0,2.68-2.18,2.75-3.43.31-5.31.12-10.65.12-16,0-13.46,0-13.46-13.57-13.46h-18.3Zm111-33c-10,0-19.82-.06-29.58.1a3.36,3.36,0,0,0-2.42,2.25c-.17,10.08-.11,20.15-.11,30.32h32.11Zm39.64-39.92H358.84V275.8c9.76,0,19.05.08,28.34-.1,1.07,0,3-1.42,3-2.21C390.42,263.4,390.35,253.3,390.35,243.07ZM239.89,323.65v32.19h31.4V323.65Zm118.75,32.27h31.29V323.8H358.64Zm-7.83-32.11H319v32h31.84Z" transform="translate(0 -28.5)"/><path d="M310.94,242.8v32.95c-10.18,0-20,.07-29.75-.13-.85,0-2.36-1.81-2.38-2.8-.18-9-.18-18,.05-27,0-1,1.78-2.9,2.76-2.92C291.26,242.71,300.9,242.8,310.94,242.8Zm-22.68,27.05c5,0,9.58.15,14.17-.12a3.76,3.76,0,0,0,2.67-2.51c.28-4.57.13-9.18.13-13.91h-17Z" transform="translate(0 -28.5)"/><path d="M239.7,275.77v-33c7.9,0,15.65,0,23.4,0,9.88,0,8.38-1.11,8.5,8.46.08,6.83.18,13.67-.12,20.48-.06,1.39-1.81,3.85-2.84,3.88C259.19,275.9,249.73,275.77,239.7,275.77Zm9.22-22.55c0,5-.15,9.3.1,13.6.07,1,1.43,2.8,2.28,2.86,4.56.28,9.16.13,13.81.13V253.22Z" transform="translate(0 -28.5)"/><path d="M390.4,315.79h-32c0-8.1-.06-16,0-23.92.1-10.5-1.38-8.8,9-8.92,6.48-.08,13-.16,19.46.13,1.22.06,3.38,1.8,3.41,2.81C390.51,295.67,390.4,305.45,390.4,315.79Zm-22.59-6.43H384.4c0-4.56-.12-8.69,0-12.82.11-2.84-1.05-3.77-3.8-3.75-15.81.14-12.47-2.16-12.83,12.12C367.78,306.23,367.81,307.55,367.81,309.36Z" transform="translate(0 -28.5)"/><path d="M311,282.93v32.75h-32.3c0-6-.1-11.93,0-17.86.1-4.77-1.28-11.34,1.24-13.79s9.07-1,13.85-1.07C299.42,282.86,305,282.93,311,282.93Zm-5.7,10.17c-5.26,0-9.89-.15-14.49.13a3.91,3.91,0,0,0-2.66,2.6c-2.13,13.07.44,15.68,13.73,14.65,2.53-.2,3.53-1.07,3.45-3.62C305.19,302.56,305.29,298.25,305.29,293.1Z" transform="translate(0 -28.5)"/><path d="M279.37,323.63H311v32.22H279.37Zm25.56,26.76v-16.8H288.36v16.8Z" transform="translate(0 -28.5)"/><path d="M350.72,243.22v32.22H319V243.22Zm-22.54,26.42h16.64V253.37H328.18Z" transform="translate(0 -28.5)"/><path d="M239.73,316v-33H258c13.59,0,13.59,0,13.57,13.46,0,5.34.19,10.68-.12,16-.07,1.25-1.76,3.41-2.75,3.43C259.27,316.07,249.79,316,239.73,316Zm9.43-22.53V310h15.89V293.43Z" transform="translate(0 -28.5)"/><path d="M350.71,283v32.67H318.6c0-10.17-.06-20.24.11-30.32a3.36,3.36,0,0,1,2.42-2.25C330.89,282.93,340.66,283,350.71,283ZM328.17,310h16.37V293.45H328.17Z" transform="translate(0 -28.5)"/><path d="M390.35,243.07c0,10.23.07,20.33-.14,30.42,0,.79-2,2.19-3,2.21-9.29.18-18.58.1-28.34.1V243.07Zm-22.27,26.24h16.05V252.58H368.08Z" transform="translate(0 -28.5)"/><path d="M239.89,323.65h31.4v32.19h-31.4Zm25.23,26.75V333.63H249.25V350.4Z" transform="translate(0 -28.5)"/><path d="M358.64,355.92V323.8h31.29v32.12Zm25.73-5.51c0-5,.14-9.46-.1-13.9-.06-1.11-1.27-3.05-2-3.1-4.71-.29-9.45-.15-14.07-.15v17.15Z" transform="translate(0 -28.5)"/><path d="M350.81,323.81v32H319v-32Zm-22.57,26.41h16.68V333.51H328.24Z" transform="translate(0 -28.5)"/><path class="cls-9" d="M459.42,400.84c-11.35-.5-11.07-.24-17.65,6.83-7.37,7.91-14.76,15.94-23.09,22.76C347.88,488.36,241.48,475.9,186,403.1c-4.56-6-9.26-5.83-15.39-5.19,27.28,43.26,82.18,80.38,148.78,78.39C378.07,474.54,424,448.5,459.42,400.84Z" transform="translate(0 -28.5)"/><g class="cls-10"><polygon class="cls-11" points="168.88 226.09 166.36 234.47 90 222.34 93 212.36 132.43 219.51 134.89 220.03 135.13 219.23 132.82 218.21 96.05 202.17 98.39 194.38 137.91 201.23 140.4 201.65 140.64 200.85 138.3 199.93 101.44 184.2 104.44 174.21 174.87 206.11 172.35 214.5 136.1 209.07 131.63 208.38 131.51 208.78 135.62 210.67 168.88 226.09"/><path class="cls-11" d="M147.57,178.21l-1.82-.84-.35.52,1.47,1.36,18.25,16.2,4.31-6.4Zm32.22,44.72-57.08-52.41,7.69-11.42,70,33.23-6.12,9.08-14.14-7-6,9,11.8,10.47Z" transform="translate(0 -28.5)"/><polygon class="cls-11" points="182.12 92.68 170.58 103.08 184.05 118.03 191.8 111.05 199.55 119.65 191.8 126.63 214.14 151.41 205.77 158.95 154.47 102.03 174.38 84.09 182.12 92.68"/><polygon class="cls-11" points="223.47 67.27 209.91 74.84 219.73 92.41 228.83 87.32 234.47 97.42 225.37 102.51 241.65 131.63 231.82 137.13 194.44 70.23 217.83 57.16 223.47 67.27"/><polygon class="cls-11" points="240.4 48.15 251.2 44.96 269.96 108.44 284.26 104.22 287.21 114.22 262.12 121.63 240.4 48.15"/><polygon class="cls-11" points="289.56 36.82 315.26 35.19 315.99 46.74 301.53 47.66 302.81 67.74 313.21 67.08 313.99 79.36 303.58 80.02 304.92 101.03 319.38 100.12 320.11 111.67 294.42 113.3 289.56 36.82"/><polygon class="cls-11" points="379.24 90.03 370.94 87.23 360.25 118.83 349.59 115.22 374.13 42.63 384.8 46.24 374.65 76.26 382.94 79.07 393.1 49.05 403.76 52.66 379.21 125.24 368.55 121.64 379.24 90.03"/><path class="cls-11" d="M436.63,117.5a7,7,0,0,0,1.44-4.81,3.23,3.23,0,0,0-1.45-2,3.46,3.46,0,0,0-4.33.5,7.85,7.85,0,0,0-1.91,2.11l-25,37.59a6.61,6.61,0,0,0-1.35,4.86,3,3,0,0,0,1.36,1.9,3.28,3.28,0,0,0,4.33-.49,7.19,7.19,0,0,0,1.91-2.12ZM421,161.32a20.74,20.74,0,0,1-6.19,5.9,14.29,14.29,0,0,1-6.85,2.21,13.37,13.37,0,0,1-8.64-2.62c-3.13-2.08-5-4.48-5.85-7a14.09,14.09,0,0,1-.53-7.11,20.72,20.72,0,0,1,3.06-8l25-37.59a20.88,20.88,0,0,1,6.13-5.81,13.21,13.21,0,0,1,15.55.33,14,14,0,0,1,5.77,7,14.53,14.53,0,0,1,.55,7.25,20.76,20.76,0,0,1-3,7.9Z" transform="translate(0 -28.5)"/><path class="cls-11" d="M496.34,151.87l-45.49,40.47a21,21,0,0,1-7.48,4.14,14.39,14.39,0,0,1-7.19.39c-2.63-.45-5.2-1.93-7.7-4.73s-3.73-5.61-3.87-8.28a14,14,0,0,1,1.3-7,20.89,20.89,0,0,1,5-6.95l45.49-40.46,7.48,8.41-45.49,40.47a6.62,6.62,0,0,0-2.54,4.35,3,3,0,0,0,.83,2.19,3.29,3.29,0,0,0,4.32.62,7.12,7.12,0,0,0,2.38-1.55l45.49-40.47Z" transform="translate(0 -28.5)"/><path class="cls-11" d="M503,202.1a25.07,25.07,0,0,0,6.3-4.16c1.52-1.6,2.3-3.28,1.49-4.86-1.42-2.55-4.54-2-8.53,0-2.32,1.19-4.21,3.45-6.05,6.26s-3.53,6.14-5.41,9.56a116.57,116.57,0,0,1-7.11,11.73,26.28,26.28,0,0,1-9.15,8.43c-4.55,2.33-9.2,3.77-13.45,3.25S453,229.44,450.2,224c-3.28-6.4-2.72-11.25-.05-15.2s7.35-6.92,12.45-9.53l6,9.36c-2.87,1.47-5.7,3-7.46,4.87s-2.8,3.66-1.71,5.8c1.52,3,5.24,2.47,9.61.23,2.22-1.14,4.25-3.58,6.18-6.44.87-1.5,1.84-3.05,2.75-4.69,1.79-3.38,3.85-7.13,6.15-11.11a43.59,43.59,0,0,1,8.06-10.34,20.34,20.34,0,0,1,5-3.63,21.49,21.49,0,0,1,12.29-2.55,13.66,13.66,0,0,1,10.37,7.46c3.19,6,2.49,10.79-.14,14.59s-7,6.74-10.78,8.69Z" transform="translate(0 -28.5)"/><polygon class="cls-11" points="534.98 199.01 541 224.04 529.75 226.75 526.36 212.66 506.8 217.36 509.23 227.5 497.27 230.37 494.84 220.24 474.36 225.16 477.75 239.25 466.5 241.95 460.48 216.91 534.98 199.01"/><text class="cls-12" transform="translate(45.09 320.71)">I</text><text class="cls-12" transform="translate(51.18 320.71)">N</text><text class="cls-12" transform="translate(66.94 320.71)">S</text><text class="cls-12" transform="translate(81.28 320.71)">T</text><text class="cls-12" transform="translate(95.26 320.71)">I</text><text class="cls-12" transform="translate(101.35 320.71)">T</text><text class="cls-12" transform="translate(115.34 320.71)">U</text><text class="cls-12" transform="translate(130.26 320.71)">T</text><text class="cls-12" transform="translate(144.25 320.71)">O</text><text class="cls-12" transform="translate(466.88 320.71)">J</text><text class="cls-12" transform="translate(476.7 320.71)">U</text><text class="cls-12" transform="translate(491.62 320.71)">V</text><text class="cls-12" transform="translate(507.73 320.71)">E</text><text class="cls-12" transform="translate(521.6 320.71)">N</text><text class="cls-12" transform="translate(537.36 320.71)">I</text><text class="cls-12" transform="translate(543.45 320.71)">L</text><text class="cls-12" transform="translate(556.44 320.71)">I</text><text class="cls-12" transform="translate(562.53 320.71)">A</text><polygon class="cls-3" points="143.56 420.06 159.47 401.91 160.56 400.72 160.36 400.48 140.92 416.95 137.58 413.01 166.56 388.45 170.97 393.66 159.86 407.41 158.49 408.91 158.55 408.99 160.26 407.88 175.64 399.18 180.05 404.38 151.07 428.94 147.73 424.99 167.17 408.52 166.97 408.29 165.61 409.17 145.09 421.88 143.56 420.06"/><path class="cls-3" d="M182.35,452l.54-.83-.23-.21-.77.63-9.23,7.81,2.83,2.57Zm-24.21,12.66,29.73-24.31,5.06,4.57-21.22,32-4-3.64,4.44-6.44-4-3.61-6,5.05Z" transform="translate(0 -28.5)"/><path class="cls-3" d="M187.21,481.64c1.56,1.1,2.56,1.56,4.1.38a16.59,16.59,0,0,0,2.75-3c1.09-1.45,2.5-3.43,4.29-6s3.2-4.51,4.2-6a16.93,16.93,0,0,0,1.91-3.59c.59-1.81-.18-2.6-1.74-3.71ZM179.43,483l22-31,3.58,2.54c4.22,3,5.89,5.45,5.44,8.68s-3.07,7.19-7.38,13.26-7.19,9.79-10,11.31-5.77.72-10-2.27Z" transform="translate(0 -28.5)"/><polygon class="cls-3" points="219.72 435.88 230.88 442.07 228.09 447.09 221.81 443.6 216.97 452.32 221.49 454.83 218.53 460.16 214.01 457.66 208.94 466.78 215.22 470.27 212.44 475.28 201.28 469.09 219.72 435.88"/><polygon class="cls-3" points="257.91 459.25 250.66 456.67 247.31 466.07 252.18 467.8 250.26 473.21 245.39 471.47 239.85 487.05 234.59 485.18 247.32 449.4 259.83 453.85 257.91 459.25"/><path class="cls-3" d="M266.39,501.45a3.82,3.82,0,0,0,2.75-.2c1-.51,1.95-1.71,2.57-4.32s.31-4.18-.33-5.08a3.82,3.82,0,0,0-2.38-1.36Zm-.64,21.63.9-16.26-1.46-.35-3.71,15.59-5.43-1.29,8.8-36.95,5.43,1.29c6.48,1.54,8.37,5.87,6.71,12.86-.87,3.67-2.62,6.76-5,7.68l-.8,18.72Z" transform="translate(0 -28.5)"/><path class="cls-3" d="M293.77,497.2a3.44,3.44,0,0,0-.44-2.44,1.61,1.61,0,0,0-1.08-.55,1.72,1.72,0,0,0-1.8,1.19,4,4,0,0,0-.38,1.36L287.41,519a3.37,3.37,0,0,0,.49,2.45,1.5,1.5,0,0,0,1,.54,1.63,1.63,0,0,0,1.81-1.19,3.81,3.81,0,0,0,.37-1.36Zm2.88,22.88a10.38,10.38,0,0,1-1.42,4,7,7,0,0,1-2.53,2.5,6.65,6.65,0,0,1-4.42.78,6.81,6.81,0,0,1-4.15-1.8,6.93,6.93,0,0,1-1.83-3,10.47,10.47,0,0,1-.43-4.22l2.66-22.21a10.5,10.5,0,0,1,1.41-4,7.24,7.24,0,0,1,2.49-2.56,7.11,7.11,0,0,1,4.47-.77,6.86,6.86,0,0,1,4.1,1.8,7.19,7.19,0,0,1,1.87,3.08,10.32,10.32,0,0,1,.44,4.17Z" transform="translate(0 -28.5)"/><polygon class="cls-3" points="316.16 500.03 312.33 476.2 312.11 474.6 311.8 474.6 312.08 500.08 306.91 500.13 306.5 462.15 313.32 462.08 316.81 479.4 317.1 481.42 317.2 481.42 317.44 479.4 320.55 462 327.37 461.93 327.79 499.9 322.62 499.96 322.34 474.49 322.03 474.49 321.84 476.09 318.54 500 316.16 500.03"/><path class="cls-3" d="M356.83,496.21a12.27,12.27,0,0,0-1.16-3.57c-.56-.93-1.26-1.53-2.12-1.35-1.41.34-1.56,1.9-1.11,4.08a8.61,8.61,0,0,0,2.19,3.72c1.1,1.25,2.47,2.5,3.85,3.85a59.29,59.29,0,0,1,4.66,4.94,13.1,13.1,0,0,1,2.82,5.49,11.94,11.94,0,0,1-.22,6.85c-.81,2-2.45,3.46-5.44,4.08-3.49.72-5.74-.19-7.27-2s-2.34-4.42-2.91-7.21l5.26-1.61a14.38,14.38,0,0,0,1.34,4.21c.61,1.14,1.38,1.83,2.55,1.59,1.62-.34,1.87-2.18,1.38-4.56a9.42,9.42,0,0,0-2.26-3.81c-.61-.61-1.22-1.28-1.88-1.93-1.38-1.3-2.89-2.78-4.49-4.41a21.53,21.53,0,0,1-3.88-5.21,10.26,10.26,0,0,1-1.07-2.89,10.68,10.68,0,0,1,.41-6.21,6.76,6.76,0,0,1,4.94-4c3.27-.73,5.48.24,6.95,2a14.81,14.81,0,0,1,2.72,6.29Z" transform="translate(0 -28.5)"/><path class="cls-3" d="M387.34,502.81l1.62,5a10.23,10.23,0,0,1,.39,4.22,7,7,0,0,1-1.25,3.34,6.61,6.61,0,0,1-3.68,2.56,6.78,6.78,0,0,1-4.52.11,6.93,6.93,0,0,1-2.93-2,10.29,10.29,0,0,1-2.16-3.64l-6.93-21.28a10.44,10.44,0,0,1-.38-4.17,7,7,0,0,1,1.19-3.38,7.17,7.17,0,0,1,3.72-2.57,7,7,0,0,1,4.48-.1,7.31,7.31,0,0,1,3,2,10.3,10.3,0,0,1,2.14,3.59l1.62,5-5,1.61-1.62-5a3.27,3.27,0,0,0-1.52-2,1.86,1.86,0,0,0-1.36,0A1.84,1.84,0,0,0,373,488a5.6,5.6,0,0,0,.19,1.41l6.92,21.28a3.64,3.64,0,0,0,1.57,2,1.48,1.48,0,0,0,1.16.05,1.8,1.8,0,0,0,1.39-1.91,3.52,3.52,0,0,0-.24-1.4l-1.61-5Z" transform="translate(0 -28.5)"/><path class="cls-3" d="M397.44,489.76a3.87,3.87,0,0,0,2.05-1.84c.45-1,.48-2.55-.63-5s-2.33-3.48-3.38-3.79a3.74,3.74,0,0,0-2.72.39Zm12.79,17.45L401,493.84l-1.37.62L406.24,509l-5.08,2.31L385.38,476.8l5.08-2.31c6.07-2.77,10.22-.52,13.2,6,1.57,3.43,2.09,6.94.76,9.14l10.89,15.25Z" transform="translate(0 -28.5)"/><path class="cls-3" d="M417.87,474l-.64-.76-.27.16.38.92,4.85,11.08,3.27-2Zm5.21,26.82-14.8-35.45,5.83-3.54,24.61,29.5-4.64,2.81-4.9-6.09-4.6,2.79,3.14,7.16Z" transform="translate(0 -28.5)"/><polygon class="cls-3" points="425.37 432.88 421.87 428.34 434.64 418.5 438.14 423.04 433.97 426.26 453.66 451.79 449.24 455.2 429.55 429.67 425.37 432.88"/><path class="cls-3" d="M466.24,451.55l3.61,3.77A10.14,10.14,0,0,1,472,459a7.08,7.08,0,0,1,.33,3.55,6.58,6.58,0,0,1-2.2,3.9,6.75,6.75,0,0,1-4,2.07,6.87,6.87,0,0,1-3.5-.51,10.31,10.31,0,0,1-3.53-2.33l-15.5-16.15a10.34,10.34,0,0,1-2.16-3.58,6.56,6.56,0,0,1,1.84-7.5,6.91,6.91,0,0,1,4-2,7.14,7.14,0,0,1,3.57.51,10.26,10.26,0,0,1,3.5,2.3l3.61,3.76-3.76,3.62-3.62-3.77a3.24,3.24,0,0,0-2.24-1.14,1.88,1.88,0,0,0-1.48,2.78,5.39,5.39,0,0,0,.78,1.19l15.49,16.14a3.54,3.54,0,0,0,2.28,1.11,1.43,1.43,0,0,0,1.07-.46,1.79,1.79,0,0,0,.41-2.33,3.75,3.75,0,0,0-.81-1.15l-3.62-3.76Z" transform="translate(0 -28.5)"/><polygon class="cls-3" points="476 406.54 473.23 409.89 485.99 420.41 482.44 424.72 453.14 400.55 456.69 396.24 468.81 406.24 471.57 402.89 459.45 392.89 463 388.59 492.3 412.76 488.75 417.06 476 406.54"/></g></g></g></svg>