<svg xmlns="http://www.w3.org/2000/svg" xmlns:xlink="http://www.w3.org/1999/xlink" viewBox="0 0 1080 929.14"><defs><style>.cls-1{fill:none;}.cls-2{fill:#0e0e10;}.cls-3{fill:#bcaf8e;}.cls-4{fill:#c4b493;}.cls-5{fill:#b28b60;}.cls-6{fill:#0f0f11;}.cls-7{fill:#b18b63;}.cls-8{fill:#c7b992;}.cls-9{fill:#cfc6ad;}.cls-10{clip-path:url(#clip-path);}.cls-11,.cls-12{fill:#fff;}.cls-12{font-size:66.07px;font-family:BebasNeueRegular, Bebas Neue;}</style><clipPath id="clip-path" transform="translate(0 -48.86)"><rect class="cls-1" x="35.14" width="1009.71" height="1009.71"/></clipPath></defs><g id="Capa_2" data-name="Capa 2"><g id="Capa_1-2" data-name="Capa 1"><path class="cls-2" d="M21.46,485.82H1073.12c7.07,1.37,8.42,5.93,5.08,15.61-7.55,21.91-15.61,43.63-22.76,65.68a27.7,27.7,0,0,0,0,16c7.09,21.74,15,43.18,22.62,64.73,3.62,10.26,2.29,15.19-5.22,16.64L8.08,664.08c-8.31-1.05-9.74-5.48-6-16.15C9.67,626,17.7,604.28,25,582.26a24.4,24.4,0,0,0,0-14.21C17.54,545.44,9.34,523.1,1.54,500.6c-3.68-10.59-.92-14.69,9.87-14.74Z" transform="translate(0 -48.86)"/><path class="cls-2" d="M1004.57,513.43C1004.57,770,796.58,978,540,978S75.43,770,75.43,513.43,283.42,48.86,540,48.86,1004.57,256.85,1004.57,513.43Z" transform="translate(0 -48.86)"/><path class="cls-3" d="M97.53,494c5.84-227.72,200-422.61,438.1-423.43,118.36-.4,221.61,39.65,307.66,121.2S974.06,374.4,981.54,493.58h35c8.86,0,17.72-.07,26.58,0,11,.11,13.68,3.94,9.82,14.56-7.19,19.85-14.88,39.53-21.7,59.51a23.94,23.94,0,0,0,0,14.48c6.75,19.7,14.3,39.12,21.56,58.65,4.2,11.32,1.42,15.49-10.48,15.51-25.43,0-50.86.22-76.29-.13-5.82-.09-8.38,1.53-10.43,7.12-37,100.91-101.74,179.09-194.48,233.31-83.83,49-174.58,67.47-271,56.68-104.44-11.68-193.28-55.91-266.84-130.7a430.26,430.26,0,0,1-99.25-158.45c-2.38-6.65-5.37-8.59-12.12-8.49-24.85.38-49.71.18-74.57.12-11.73,0-14.22-3.63-10.1-14.87,7.26-19.84,14.91-39.55,21.85-59.5a21,21,0,0,0,0-12.87C42,548,34.21,527.79,26.78,507.41c-3.5-9.6-.87-13.32,9.4-13.36C56.43,494,76.67,494,97.53,494Z" transform="translate(0 -48.86)"/><circle class="cls-4" cx="540" cy="464.57" r="448.29"/><circle class="cls-2" cx="540" cy="464.57" r="429"/><polygon class="cls-4" points="91.71 445.16 987.85 444.72 988.29 607.51 91.71 606.99 91.71 445.16"/><path class="cls-5" d="M65.74,505.56h958.38c6.44,1.07,7.67,4.62,4.63,12.16-6.88,17.07-14.23,34-20.75,51.17a18.63,18.63,0,0,0,0,12.44c6.46,16.94,13.68,33.64,20.62,50.43,3.3,8,2.08,11.83-4.76,13l-970.32-.3c-7.57-.81-8.88-4.26-5.49-12.58,6.94-17.06,14.25-34,20.89-51.15a16.32,16.32,0,0,0,0-11.07c-6.81-17.62-14.28-35-21.39-52.54-3.35-8.26-.84-11.45,9-11.49Z" transform="translate(0 -48.86)"/><circle class="cls-6" cx="540" cy="464.57" r="261"/><circle class="cls-4" cx="540" cy="464.57" r="240.86"/><rect class="cls-7" x="383.5" y="333.36" width="303.43" height="255.43"/><path d="M497.33,707.27c-33.45,17-69.69-1.09-76.14-40.13H407.91c-30.85,0-51.15-18.75-53.53-49.35a25.53,25.53,0,0,1-.1-4.28c1.15-12.48-1.21-22-11.91-31.64-19.67-17.68-18.87-44.64-1.07-68.52-8.15-9.67-13.15-20.78-13.14-33.89,0-17.24,6.87-31.08,20.67-41.13,4.26-3.1,5.58-6.21,5.53-11.26-.07-8.81,0-17.78,1.43-26.43,4.09-24.44,23.89-40.79,48.63-41,5.42-.05,10.84,0,17,0,2.83-17.88,11-32.43,27.4-41,16.13-8.38,32.44-7.22,48.19,1.08,26.37-34.64,66.15-27.59,85.49.09,15.91-8.18,32.33-9.66,48.76-1,16.15,8.55,24.18,22.72,27,40.76,5.73,0,11.12-.06,16.52,0,27.72.36,48.08,19.57,50.13,47.27a25.51,25.51,0,0,1,.17,4.27C723.74,425,727,435.48,738.29,445.9c18.85,17.36,17.74,42.18,1.63,65.62,3.9,10.23,8.91,19.35,10.77,29.07,3.78,19.75-4,36-19.75,47.89-4.61,3.47-5.75,6.77-5.83,11.92-.16,9.39.1,19-1.79,28.09-4.81,23.18-23.41,38-47,38.66-5.95.17-11.91,0-17.75,0-4.8,34.64-38.08,58.37-76,40.11C559.28,738.89,518.92,737.65,497.33,707.27ZM711.18,513.58c6.17-4.73,12.08-7.86,16.09-12.6a33.9,33.9,0,0,0-11.48-52.74c-5.25-2.51-7.2-5.35-7-11,.36-9.41.32-18.87-.13-28.27-.94-19.9-14.32-32.71-34.24-33.13-6-.13-12-.06-18,0-13.92,0-13.92,0-14.7-13.81-.82-14.36-10.22-26.88-23.19-30.88a34.34,34.34,0,0,0-37,11.07c-1.57,2-4,3.24-6,4.83a54,54,0,0,1-2.41-6.8c-3.47-16-17.6-27.93-32.69-27.56-17.5.43-30.37,11.42-33.49,28.45-.41,2.22-1.44,4.33-2.85,8.44-3.11-3.77-4.79-5.89-6.57-7.94-9.9-11.38-24.82-15.52-37.93-9.8-14.57,6.36-22,17.74-21.13,33.84.43,7.61-1.93,11-10.11,10.29-7.94-.67-16-.3-24-.08-17.38.48-30.11,11.07-32.39,28.23-1.45,11-1.32,22.19-1.33,33.29,0,5.43-1.18,8.46-6.74,11-20.74,9.51-25.9,34.65-11,52.33,4,4.79,9.45,8.43,14.68,13a30.29,30.29,0,0,1-4.12,3.29c-12.93,6.78-19.34,17.72-18.91,32s8.09,24.38,21.05,30.74c2.29,1.12,4.46,4.84,4.64,7.5.6,8.53,0,17.13.3,25.69.83,24.9,15.27,39.83,39.16,38,6.54-.49,13.17.31,19.7-.19,6.93-.53,9.38,2.5,8.91,9a43.93,43.93,0,0,0,.06,5.13c.67,14.73,9.26,26.26,22.95,30.85,12.7,4.26,27.21,0,36.33-10.68,1.73-2,3.55-4,6.91-7.71,3.89,21.94,13.69,36.85,35.6,36.68,21.65-.17,31.13-15.38,35.19-36.92,3.51,4.1,5.27,6.19,7.06,8.26,14.09,16.24,38.82,16.5,51.32-.61,4.56-6.24,6.69-15,7.8-22.86,1.51-10.82.64-11,11.93-11h18.85c22.5-.05,35.65-12.66,36.47-35.25.31-8.56.47-17.15.06-25.7-.29-5.92,1.53-8.9,7.26-11.51,12.5-5.67,18.79-16.26,19-30,.24-13.43-5.65-23.58-17.25-30.41C715.85,516.76,713.93,515.38,711.18,513.58Z" transform="translate(0 -48.86)"/><path class="cls-7" d="M711.18,513.58c2.75,1.8,4.67,3.18,6.7,4.37,11.6,6.83,17.49,17,17.25,30.41-.24,13.78-6.53,24.37-19,30-5.73,2.61-7.55,5.59-7.26,11.51.41,8.55.25,17.14-.06,25.7-.82,22.59-14,35.2-36.47,35.25H653.46c-11.29,0-10.42.15-11.93,11-1.11,7.89-3.24,16.62-7.8,22.86-12.5,17.11-37.23,16.85-51.32.61-1.79-2.07-3.55-4.16-7.06-8.26-4.06,21.54-13.54,36.75-35.19,36.92-21.91.17-31.71-14.74-35.6-36.68-3.36,3.74-5.18,5.69-6.91,7.71-9.12,10.67-23.63,14.94-36.33,10.68-13.69-4.59-22.28-16.12-22.95-30.85a43.93,43.93,0,0,1-.06-5.13c.47-6.46-2-9.49-8.91-9-6.53.5-13.16-.3-19.7.19-23.89,1.8-38.33-13.13-39.16-38-.28-8.56.3-17.16-.3-25.69-.18-2.66-2.35-6.38-4.64-7.5-13-6.36-20.62-16.36-21.05-30.74s6-25.22,18.91-32a30.29,30.29,0,0,0,4.12-3.29c-5.23-4.55-10.64-8.19-14.68-13-14.94-17.68-9.78-42.82,11-52.33,5.56-2.54,6.73-5.57,6.74-11,0-11.1-.12-22.32,1.33-33.29,2.28-17.16,15-27.75,32.39-28.23,8-.22,16-.59,24,.08,8.18.7,10.54-2.68,10.11-10.29-.91-16.1,6.56-27.48,21.13-33.84,13.11-5.72,28-1.58,37.93,9.8,1.78,2.05,3.46,4.17,6.57,7.94,1.41-4.11,2.44-6.22,2.85-8.44,3.12-17,16-28,33.49-28.45,15.09-.37,29.22,11.6,32.69,27.56a54,54,0,0,0,2.41,6.8c2-1.59,4.46-2.87,6-4.83a34.34,34.34,0,0,1,37-11.07c13,4,22.37,16.52,23.19,30.88.78,13.82.78,13.82,14.7,13.81,6,0,12-.08,18,0,19.92.42,33.3,13.23,34.24,33.13.45,9.4.49,18.86.13,28.27-.21,5.65,1.74,8.49,7,11A33.9,33.9,0,0,1,727.27,501C723.26,505.72,717.35,508.85,711.18,513.58Zm-18.5-16.9c19-3.16,25.15-7.41,24.84-17.86-.1-3.44-1.41-8.37-3.87-9.91-6.15-3.87-13.28-6.19-21.61-9.82V452c0-12.85.2-25.71,0-38.56-.26-14-6.09-19.77-19.89-20-8.28-.12-16.57,0-24.85,0H624.94c0-6.41.09-11.23,0-16.05s-.14-9.73-.71-14.53c-1.12-9.44-8.67-15.93-17.34-15.31-8.46.61-14.6,7.35-14.9,16.79-.24,7.42-.36,14.86,0,22.27.23,5.29-1.79,7.14-7,6.93-7.13-.29-14.29-.24-21.42,0-5.12.18-7.1-1.8-7-7,.21-12.57.15-25.14,0-37.71-.18-11.25-7.14-18.79-16.84-18.68s-16.07,7.43-16.15,19.14c-.1,12.57.13,25.14-.23,37.7-.06,2.15-2.28,6-3.65,6.07-10.16.52-20.37.29-31.44.29,0-9.52.16-17.75,0-26-.28-11.74-6.72-18.69-16.81-18.53-9.93.17-16.11,7.47-16.15,19.14,0,8.17,0,16.34,0,25.45-15.5,0-29.72-.06-43.93,0-18.75.09-23.13,4.5-23.16,23.19,0,15,0,30,0,44.87-20.15,2.36-26.54,6.34-26.62,16.92-.14,18.1,14.26,16.5,26.13,17.86v34.56c-12.71-.39-25.6,1.3-25.93,16.69-.35,16.25,13.16,17.34,26.35,17.24,0,16.27,0,31.64,0,47,0,16.68,5.23,21.84,22.15,21.9,14.79.05,29.59,0,45,0V648c0,4.85-.1,9.71,0,14.56.29,10.81,6.92,18.15,16.37,18.3s16.3-7.12,16.68-18c.21-6-.37-12,.21-18,.19-2,2.77-5.3,4.4-5.38,9.87-.51,19.78-.26,30.66-.26,0,13.7-.07,26.2,0,38.69.08,11.91,6.85,19.67,16.86,19.51,9-.13,15.92-8.34,16.12-19.58.19-10.56-.14-21.14.21-31.7.08-2.33,2-6.52,3.19-6.58,10.39-.53,20.82-.31,32-.31,0,9.18-.21,16.85.06,24.5.3,8.88,6.43,15.38,14.68,16.12,8.59.78,16.09-5,17.34-14.15.85-6.18.71-12.51.88-18.78.12-4.43,0-8.86,0-13.74,17.43,0,33.7.28,49.94-.1,10.41-.24,15.64-5.38,16.88-15.59a109.6,109.6,0,0,0,.33-12.83c0-13.05,0-26.11,0-38.9,20.41-4.31,25.94-8.43,25.65-18.52-.28-9.6-7-14.26-25-17.08Z" transform="translate(0 -48.86)"/><path d="M692.68,496.68v33.55c18.06,2.82,24.76,7.48,25,17.08.29,10.09-5.24,14.21-25.65,18.52,0,12.79,0,25.85,0,38.9a109.6,109.6,0,0,1-.33,12.83c-1.24,10.21-6.47,15.35-16.88,15.59-16.24.38-32.51.1-49.94.1,0,4.88.09,9.31,0,13.74-.17,6.27,0,12.6-.88,18.78-1.25,9.16-8.75,14.93-17.34,14.15-8.25-.74-14.38-7.24-14.68-16.12-.27-7.65-.06-15.32-.06-24.5-11.21,0-21.64-.22-32,.31-1.22.06-3.11,4.25-3.19,6.58-.35,10.56,0,21.14-.21,31.7-.2,11.24-7.11,19.45-16.12,19.58-10,.16-16.78-7.6-16.86-19.51-.08-12.49,0-25,0-38.69-10.88,0-20.79-.25-30.66.26-1.63.08-4.21,3.38-4.4,5.38-.58,5.94,0,12-.21,18-.38,10.87-7.24,18.13-16.68,18s-16.08-7.49-16.37-18.3c-.13-4.85,0-9.71,0-14.56V633.67c-15.4,0-30.2,0-45,0-16.92-.06-22.13-5.22-22.15-21.9,0-15.36,0-30.73,0-47-13.19.1-26.7-1-26.35-17.24.33-15.39,13.22-17.08,25.93-16.69V496.27c-11.87-1.36-26.27.24-26.13-17.86.08-10.58,6.47-14.56,26.62-16.92,0-14.83,0-29.85,0-44.87,0-18.69,4.41-23.1,23.16-23.19,14.21-.07,28.43,0,43.93,0,0-9.11,0-17.28,0-25.45,0-11.67,6.22-19,16.15-19.14,10.09-.16,16.53,6.79,16.81,18.53.2,8.23,0,16.46,0,26,11.07,0,21.28.23,31.44-.29,1.37-.07,3.59-3.92,3.65-6.07.36-12.56.13-25.13.23-37.7.08-11.71,6.34-19,16.15-19.14s16.66,7.43,16.84,18.68c.2,12.57.26,25.14,0,37.71-.09,5.18,1.89,7.16,7,7,7.13-.26,14.29-.31,21.42,0,5.17.21,7.19-1.64,7-6.93-.32-7.41-.2-14.85,0-22.27.3-9.44,6.44-16.18,14.9-16.79,8.67-.62,16.22,5.87,17.34,15.31.57,4.8.6,9.68.71,14.53s0,9.64,0,16.05h22.32c8.28,0,16.57-.1,24.85,0,13.8.21,19.63,5.94,19.89,20,.24,12.85,0,25.71,0,38.56v7.14c8.33,3.63,15.46,6,21.61,9.82,2.46,1.54,3.77,6.47,3.87,9.91C717.83,489.27,711.65,493.52,692.68,496.68Zm-11-23.85c0-19.49,0-37.71,0-55.93,0-12.91-.55-13.41-13.68-13.42-17.63,0-35.27,0-53.56,0,0-12.37.07-23.77,0-35.16,0-4.52.44-10-6.23-10.07s-6.37,5.23-6.37,9.89q0,17.42,0,34.88H546.07c0-3.31,0-6.1,0-8.9,0-14.86.29-29.72-.29-44.56-.12-3-3.18-7.95-5.59-8.42-5.91-1.18-6.38,4-6.42,8.53,0,2.85-.06,5.71-.06,8.57v44.55h-56c0-11.22.06-21.75,0-32.27,0-4.7,1.24-11.11-5.78-11.2-7.67-.11-6.25,6.66-6.31,11.59-.12,10.49,0,21,0,32.1-3.77.19-6.55.44-9.33.45-16,.07-32,.2-48,.07-7.11-.06-10.35,2.69-10.21,10.16.3,16.56.09,33.14,0,49.7,0,3-.36,6-.58,9.39-6.72,0-12.53-.66-18.07.28-2.84.48-5.18,3.84-7.75,5.91,2.58,2,5,5.36,7.79,5.81,5.76.92,11.76.28,17.88.28v56.71c-6.28,0-11.83-.73-17,.27-3.11.6-5.69,3.94-8.51,6,2.85,2.07,5.44,4.93,8.62,6s6.81.43,10.21.11c6.06-.58,7.79,2,7.68,7.91-.33,17.14.17,34.29-.1,51.43-.12,7.07,2.83,9.86,9.59,9.79,12.86-.12,25.72-.06,38.57-.07h19.24c0,13.46,0,25.41,0,37.36,0,4.36-.26,9.43,5.76,9.56,6.63.13,6.32-5.26,6.33-9.91,0-11.93,0-23.85,0-36.34h56.05v14.26c0,13.71-.31,27.44.3,41.12.12,2.63,3.85,5.11,5.92,7.65,2-2.6,5.71-5.12,5.84-7.82.62-12.83.28-25.7.28-38.56v-16.7h55.71c0,12,0,23.42,0,34.8,0,5-.4,10.89,6.44,10.72s6.17-6.16,6.17-11.07c0-11.35,0-22.69,0-34.59,4-.19,7-.45,10.08-.46,15.72,0,31.43-.21,47.14,0,7.34.13,10.37-2.8,10.1-10.19-.34-9.41-.05-18.85-.05-28.28,0-9.88,0-19.75,0-30.61h15.61c4.8,0,9.94-.33,9.81-6.67-.12-5.93-5.09-5.88-9.53-5.85-5,0-10.06,0-15.32,0V485.57c3.37-.21,6.23-.07,8.94-.62,5.69-1.17,15.63,4,15.6-6.2,0-9.47-9.62-4.83-15.14-5.83C688.88,472.42,686,472.83,681.65,472.83Z" transform="translate(0 -48.86)"/><path class="cls-8" d="M681.65,472.83c4.33,0,7.23-.41,10,.09,5.52,1,15.12-3.64,15.14,5.83,0,10.22-9.91,5-15.6,6.2-2.71.55-5.57.41-8.94.62v56.14c5.26,0,10.29,0,15.32,0,4.44,0,9.41-.08,9.53,5.85.13,6.34-5,6.66-9.81,6.67H681.64c0,10.86,0,20.73,0,30.61,0,9.43-.29,18.87.05,28.28.27,7.39-2.76,10.32-10.1,10.19-15.71-.26-31.42-.09-47.14,0-3.07,0-6.13.27-10.08.46,0,11.9,0,23.24,0,34.59,0,4.91.6,10.91-6.17,11.07s-6.46-5.76-6.44-10.72c0-11.38,0-22.76,0-34.8H546.08v16.7c0,12.86.34,25.73-.28,38.56-.13,2.7-3.8,5.22-5.84,7.82-2.07-2.54-5.8-5-5.92-7.65-.61-13.68-.29-27.41-.3-41.12V623.9H477.69c0,12.49,0,24.41,0,36.34,0,4.65.3,10-6.33,9.91-6-.13-5.76-5.2-5.76-9.56,0-12,0-23.9,0-37.36H446.35c-12.85,0-25.71-.05-38.57.07-6.76.07-9.71-2.72-9.59-9.79.27-17.14-.23-34.29.1-51.43.11-5.94-1.62-8.49-7.68-7.91-3.4.32-7.12.91-10.21-.11s-5.77-3.91-8.62-6c2.82-2.1,5.4-5.44,8.51-6,5.22-1,10.77-.27,17-.27V485.06c-6.12,0-12.12.64-17.88-.28-2.83-.45-5.21-3.78-7.79-5.81,2.57-2.07,4.91-5.43,7.75-5.91,5.54-.94,11.35-.28,18.07-.28.22-3.39.57-6.39.58-9.39.07-16.56.28-33.14,0-49.7-.14-7.47,3.1-10.22,10.21-10.16,16,.13,32,0,48-.07,2.78,0,5.56-.26,9.33-.45,0-11.12-.08-21.61,0-32.1.06-4.93-1.36-11.7,6.31-11.59,7,.09,5.75,6.5,5.78,11.2.09,10.52,0,21.05,0,32.27h56V358.24c0-2.86,0-5.72.06-8.57,0-4.52.51-9.71,6.42-8.53,2.41.47,5.47,5.41,5.59,8.42.58,14.84.28,29.7.29,44.56,0,2.8,0,5.59,0,8.9h55.69q0-17.49,0-34.88c0-4.66-.28-9.95,6.37-9.89s6.19,5.55,6.23,10.07c.11,11.39,0,22.79,0,35.16,18.29,0,35.93,0,53.56,0,13.13,0,13.65.51,13.68,13.42C681.68,435.12,681.65,453.34,681.65,472.83ZM533,416.22c-17.22,0-33.74-.15-50.25.23-1.7,0-4.7,3.22-4.75,5-.39,15.4-.38,30.83-.08,46.24,0,1.69,2.62,4.77,4.07,4.8,16.77.34,33.56.22,51,.22ZM410.91,472.75c17.21,0,33.42.21,49.62-.3,1.76-.06,4.76-4.27,4.86-6.66.51-11.68.35-23.41.2-35.11-.2-16.41,2.38-14.42-14.56-14.51-13.29-.07-26.58,0-40.12,0Zm258.35,68.61c0-17.73.18-34.5-.27-51.26,0-1.73-3.74-4.72-5.84-4.81-11.11-.5-22.24-.37-33.36-.24-17.75.21-15.23-2.7-15.4,15.31-.12,13.55,0,27.11,0,41ZM533.13,485c-10.21,0-19.83-.13-29.45,0-8.2.15-19.37-2.42-23.75,1.84s-1.95,15.47-2.13,23.64c-.22,10.16-.05,20.33-.05,30.62h55.38Zm-54.21,69.76V610h54.19V554.79ZM601.24,417H546.78v55.24h54.46ZM411,541.64c17.25,0,33.48.19,49.7-.26,1.7,0,4.6-3.75,4.72-5.89.53-9.11.2-18.26.22-27.4,0-23.09,0-23.09-23.28-23.09H411Zm190.24-56.52c-17.22,0-34-.1-50.7.18-1.47,0-4.13,2.49-4.15,3.86-.29,17.27-.19,34.54-.19,52h55Zm68-68.42h-54v56.11c16.72,0,32.65.13,48.58-.18,1.83,0,5.16-2.43,5.19-3.79C669.29,451.54,669.17,434.23,669.17,416.7ZM411.23,554.82V610h53.83V554.82Zm203.59,55.32h53.64V555.08H614.82Zm-13.44-55H546.8V610h54.58Z" transform="translate(0 -48.86)"/><path d="M533,416.22v56.5c-17.45,0-34.24.12-51-.22-1.45,0-4-3.11-4.07-4.8-.3-15.41-.31-30.84.08-46.24,0-1.79,3-5,4.75-5C499.3,416.07,515.82,416.22,533,416.22ZM494.16,462.6c8.51,0,16.42.26,24.29-.2,1.67-.1,4.48-2.71,4.58-4.3.47-7.85.21-15.74.21-23.85H494.16Z" transform="translate(0 -48.86)"/><path d="M410.91,472.75V416.16c13.54,0,26.83-.06,40.12,0,16.94.09,14.36-1.9,14.56,14.51.15,11.7.31,23.43-.2,35.11-.1,2.39-3.1,6.6-4.86,6.66C444.33,473,428.12,472.75,410.91,472.75Zm15.8-38.66c0,8.53-.25,15.94.19,23.31.11,1.78,2.44,4.81,3.9,4.9,7.82.49,15.7.23,23.67.23V434.09Z" transform="translate(0 -48.86)"/><path d="M669.26,541.36H614.37c0-13.89-.1-27.45,0-41,.17-18-2.35-15.1,15.4-15.31,11.12-.13,22.25-.26,33.36.24,2.1.09,5.8,3.08,5.84,4.81C669.44,506.86,669.26,523.63,669.26,541.36Zm-38.73-11H659c0-7.81-.2-14.89.07-22,.19-4.88-1.8-6.47-6.52-6.43-27.1.23-21.37-3.71-22,20.77C630.48,525,630.53,527.23,630.53,530.32Z" transform="translate(0 -48.86)"/><path d="M533.13,485v56.14H477.75c0-10.29-.17-20.46.05-30.62.18-8.17-2.18-19.44,2.13-23.64s15.55-1.69,23.75-1.84C513.3,484.9,522.92,485,533.13,485Zm-9.78,17.43c-9,0-17-.26-24.83.21-1.66.1-4.28,2.71-4.57,4.47-3.64,22.41.76,26.88,23.53,25.11,4.35-.34,6.07-1.83,5.93-6.21C523.19,518.67,523.35,511.28,523.35,502.46Z" transform="translate(0 -48.86)"/><path d="M478.92,554.79h54.19V610H478.92Zm43.82,45.87V571.87H494.33v28.79Z" transform="translate(0 -48.86)"/><path d="M601.24,417v55.24H546.78V417ZM562.6,462.23h28.52V434.34H562.6Z" transform="translate(0 -48.86)"/><path d="M411,541.64V485h31.36c23.31,0,23.3,0,23.28,23.09,0,9.14.31,18.29-.22,27.4-.12,2.14-3,5.84-4.72,5.89C444.45,541.83,428.22,541.64,411,541.64ZM427.14,503v28.44h27.23V503Z" transform="translate(0 -48.86)"/><path d="M601.21,485.12v56h-55c0-17.43-.1-34.7.19-52,0-1.37,2.68-3.84,4.15-3.86C567.24,485,584,485.12,601.21,485.12Zm-38.63,46.37h28.06V503.07H562.58Z" transform="translate(0 -48.86)"/><path d="M669.17,416.7c0,17.53.12,34.84-.24,52.14,0,1.36-3.36,3.76-5.19,3.79-15.93.31-31.86.18-48.58.18V416.7Zm-38.17,45h27.5V433H631Z" transform="translate(0 -48.86)"/><path d="M411.23,554.82h53.83V610H411.23Zm43.27,45.87V571.93H427.28v28.76Z" transform="translate(0 -48.86)"/><path d="M614.82,610.14V555.08h53.64v55.06Zm44.1-9.44c0-8.56.24-16.21-.17-23.83-.1-1.91-2.18-5.23-3.51-5.31-8.09-.5-16.21-.25-24.13-.25V600.7Z" transform="translate(0 -48.86)"/><path d="M601.38,555.1V610H546.8V555.1Zm-38.69,45.28H591.3V571.74H562.69Z" transform="translate(0 -48.86)"/><path class="cls-9" d="M787.57,687.16c-19.45-.87-19-.42-30.26,11.7-12.62,13.56-25.3,27.33-39.58,39C596.36,837.18,414,815.84,318.8,691c-7.81-10.24-15.87-10-26.37-8.9,46.77,74.16,140.88,137.8,255,134.38C648.12,813.5,726.86,768.85,787.57,687.16Z" transform="translate(0 -48.86)"/><g class="cls-10"><polygon class="cls-11" points="289.5 387.57 285.19 401.95 154.29 381.16 159.42 364.04 227.02 376.3 231.23 377.19 231.64 375.82 227.69 374.07 164.66 346.58 168.66 333.23 236.42 344.97 240.68 345.69 241.09 344.32 237.09 342.74 173.9 315.77 179.04 298.65 299.77 353.34 295.46 367.72 233.32 358.41 225.65 357.23 225.45 357.91 232.5 361.15 289.5 387.57"/><path class="cls-11" d="M253,305.51l-3.12-1.45-.6.89,2.52,2.34,31.29,27.76,7.39-11Zm55.23,76.66-97.84-89.86,13.18-19.56,120,56.95-10.49,15.57-24.23-12-10.38,15.41,20.23,17.95Z" transform="translate(0 -48.86)"/><polygon class="cls-11" points="312.21 158.89 292.43 176.72 315.52 202.34 328.8 190.37 342.08 205.11 328.8 217.07 367.09 259.56 352.75 272.48 264.81 174.9 298.93 144.15 312.21 158.89"/><polygon class="cls-11" points="383.09 115.31 359.85 128.3 376.67 158.41 392.27 149.7 401.95 167.01 386.35 175.73 414.25 225.66 397.4 235.07 333.32 120.4 373.42 98 383.09 115.31"/><polygon class="cls-11" points="412.12 82.54 430.63 77.07 462.79 185.91 487.3 178.66 492.36 195.8 449.34 208.51 412.12 82.54"/><polygon class="cls-11" points="496.39 63.13 540.45 60.33 541.7 80.13 516.91 81.7 519.1 116.13 536.93 115 538.27 136.04 520.43 137.17 522.72 173.2 547.51 171.63 548.77 191.43 504.71 194.22 496.39 63.13"/><polygon class="cls-11" points="650.12 154.34 635.9 149.53 617.58 203.71 599.29 197.52 641.38 73.09 659.66 79.27 642.25 130.74 656.47 135.55 673.88 84.08 692.16 90.27 650.08 214.7 631.8 208.52 650.12 154.34"/><path class="cls-11" d="M748.51,201.42c2-3,2.77-5.45,2.47-8.23a5.56,5.56,0,0,0-2.48-3.37c-2.83-1.88-5.56-.68-7.44.85a13.79,13.79,0,0,0-3.27,3.63l-42.85,64.43c-2.08,3.13-2.72,5.71-2.32,8.33a5.11,5.11,0,0,0,2.33,3.27c2.83,1.88,5.36,1,7.44-.85a12.52,12.52,0,0,0,3.26-3.62Zm-26.79,75.13a35.72,35.72,0,0,1-10.59,10.12,24.51,24.51,0,0,1-11.75,3.78c-4.56.4-9.46-.93-14.82-4.49s-8.63-7.68-10-12a24.1,24.1,0,0,1-.9-12.19A35.87,35.87,0,0,1,678.87,248l42.85-64.43a35.73,35.73,0,0,1,10.5-10,24.73,24.73,0,0,1,11.69-4c4.46-.25,9.62,1,15,4.6s8.38,7.72,9.88,11.93a25.12,25.12,0,0,1,1,12.44,35.58,35.58,0,0,1-5.14,13.54Z" transform="translate(0 -48.86)"/><path class="cls-11" d="M850.86,260.35l-78,69.37a35.76,35.76,0,0,1-12.82,7.1,24.63,24.63,0,0,1-12.32.67c-4.51-.77-8.92-3.3-13.2-8.11s-6.4-9.62-6.64-14.19a24,24,0,0,1,2.23-12,35.72,35.72,0,0,1,8.54-11.91l78-69.37,12.83,14.43-78,69.37c-2.81,2.49-4.08,4.82-4.36,7.46a5.14,5.14,0,0,0,1.42,3.76c2.26,2.53,4.93,2.31,7.41,1.06a12.43,12.43,0,0,0,4.08-2.67l78-69.37Z" transform="translate(0 -48.86)"/><path class="cls-11" d="M862.22,346.46c3.81-1.95,8-4.31,10.8-7.13,2.61-2.75,3.94-5.64,2.56-8.34-2.44-4.37-7.79-3.44-14.63.06-4,2-7.22,5.9-10.37,10.73s-6.05,10.53-9.27,16.39a201.07,201.07,0,0,1-12.2,20.1c-4.34,6-9.33,11.2-15.69,14.46-7.79,4-15.76,6.47-23,5.58s-13.79-5-18.6-14.37c-5.62-11-4.66-19.3-.09-26.06S784.28,346,793,341.53l10.22,16.05c-4.93,2.52-9.78,5.21-12.79,8.35-3.24,3.07-4.81,6.28-2.94,9.94,2.61,5.09,9,4.23,16.47.4,3.82-1.95,7.3-6.14,10.61-11,1.49-2.57,3.14-5.22,4.72-8,3.06-5.79,6.59-12.22,10.52-19.05a75.24,75.24,0,0,1,13.82-17.72,35.14,35.14,0,0,1,8.66-6.23c6.36-3.26,13.93-5.33,21.06-4.36,7,1.05,13.47,4.75,17.78,12.78,5.46,10.26,4.26,18.5-.24,25s-12,11.54-18.48,14.88Z" transform="translate(0 -48.86)"/><polygon class="cls-11" points="917.11 341.15 927.43 384.07 908.14 388.71 902.34 364.56 868.8 372.62 872.97 389.99 852.47 394.92 848.29 377.55 813.19 385.98 819 410.14 799.71 414.77 789.39 371.85 917.11 341.15"/><text class="cls-12" transform="translate(77.29 549.78)">I</text><text class="cls-12" transform="translate(87.73 549.78)">N</text><text class="cls-12" transform="translate(114.75 549.78)">S</text><text class="cls-12" transform="translate(139.33 549.78)">T</text><text class="cls-12" transform="translate(163.31 549.78)">I</text><text class="cls-12" transform="translate(173.75 549.78)">T</text><text class="cls-12" transform="translate(197.73 549.78)">U</text><text class="cls-12" transform="translate(223.3 549.78)">T</text><text class="cls-12" transform="translate(247.28 549.78)">O</text><text class="cls-12" transform="translate(800.36 549.78)">J</text><text class="cls-12" transform="translate(817.21 549.78)">U</text><text class="cls-12" transform="translate(842.77 549.78)">V</text><text class="cls-12" transform="translate(870.39 549.78)">E</text><text class="cls-12" transform="translate(894.17 549.78)">N</text><text class="cls-12" transform="translate(921.2 549.78)">I</text><text class="cls-12" transform="translate(931.63 549.78)">L</text><text class="cls-12" transform="translate(953.9 549.78)">I</text><text class="cls-12" transform="translate(964.34 549.78)">A</text><polygon class="cls-3" points="246.1 720.11 273.37 688.99 275.24 686.95 274.9 686.54 241.57 714.77 235.85 708.01 285.53 665.92 293.09 674.85 274.04 698.41 271.69 700.98 271.8 701.12 274.73 699.22 301.1 684.31 308.66 693.23 258.98 735.32 253.25 728.56 286.58 700.33 286.23 699.92 283.91 701.43 248.73 723.22 246.1 720.11"/><path class="cls-3" d="M312.6,774.77l.93-1.42-.4-.36-1.32,1.07L296,787.46l4.86,4.4Zm-41.5,21.71,51-41.69,8.67,7.85-36.39,54.88-6.9-6.24,7.61-11-6.84-6.18L278,802.72Z" transform="translate(0 -48.86)"/><path class="cls-3" d="M320.93,825.67c2.67,1.89,4.39,2.68,7,.64a28.17,28.17,0,0,0,4.72-5.12c1.87-2.48,4.28-5.88,7.35-10.21s5.48-7.73,7.21-10.31a30,30,0,0,0,3.27-6.15c1-3.1-.31-4.46-3-6.36Zm-13.34,2.27,37.66-53.12,6.15,4.36c7.22,5.13,10.1,9.34,9.32,14.87s-5.27,12.33-12.65,22.74-12.33,16.78-17.22,19.39-9.89,1.24-17.12-3.89Z" transform="translate(0 -48.86)"/><polygon class="cls-3" points="376.65 747.22 395.79 757.84 391.01 766.44 380.25 760.47 371.95 775.41 379.69 779.71 374.62 788.85 366.88 784.55 358.19 800.2 368.96 806.17 364.19 814.77 345.05 804.15 376.65 747.22"/><polygon class="cls-3" points="442.13 787.29 429.7 782.87 423.97 798.98 432.31 801.95 429.02 811.21 420.67 808.24 411.17 834.95 402.15 831.74 423.98 770.4 445.43 778.03 442.13 787.29"/><path class="cls-3" d="M456.67,859.63a6.68,6.68,0,0,0,4.72-.34c1.67-.88,3.34-2.94,4.41-7.42s.52-7.16-.57-8.69a6.53,6.53,0,0,0-4.09-2.34Zm-1.09,37.07,1.53-27.86-2.5-.6L448.25,895l-9.31-2.22L454,829.4l9.31,2.22c11.11,2.65,14.35,10.07,11.5,22-1.5,6.29-4.49,11.59-8.6,13.16l-1.36,32.1Z" transform="translate(0 -48.86)"/><path class="cls-3" d="M503.6,852.35a5.94,5.94,0,0,0-.74-4.2,2.75,2.75,0,0,0-1.85-.93,3,3,0,0,0-3.1,2,6.82,6.82,0,0,0-.64,2.33l-4.56,38.09a5.61,5.61,0,0,0,.84,4.2,2.51,2.51,0,0,0,1.76.92,2.8,2.8,0,0,0,3.1-2,6.29,6.29,0,0,0,.63-2.34Zm4.94,39.22a17.69,17.69,0,0,1-2.42,6.85,12.36,12.36,0,0,1-4.35,4.3A11.42,11.42,0,0,1,494.2,904a11.69,11.69,0,0,1-7.12-3.08,12,12,0,0,1-3.13-5.2,17.75,17.75,0,0,1-.74-7.22l4.56-38.09a17.62,17.62,0,0,1,2.42-6.76A11.24,11.24,0,0,1,502.11,838a11.91,11.91,0,0,1,7,3.08,12.39,12.39,0,0,1,3.2,5.29,17.5,17.5,0,0,1,.75,7.13Z" transform="translate(0 -48.86)"/><polygon class="cls-3" points="541.99 857.2 535.43 816.34 535.05 813.6 534.52 813.6 534.99 857.27 526.13 857.37 525.42 792.26 537.12 792.13 543.11 821.84 543.59 825.29 543.77 825.28 544.17 821.82 549.52 792 561.21 791.87 561.92 856.98 553.06 857.08 552.59 813.4 552.05 813.41 551.73 816.16 546.07 857.15 541.99 857.2"/><path class="cls-3" d="M611.71,850.64a21.58,21.58,0,0,0-2-6.11c-1-1.61-2.17-2.62-3.65-2.32-2.41.59-2.67,3.26-1.9,7,.45,2.17,1.87,4.23,3.75,6.38s4.23,4.28,6.61,6.59a101.36,101.36,0,0,1,8,8.49,22.25,22.25,0,0,1,4.83,9.4c.88,4.26,1,8.39-.38,11.75s-4.21,5.93-9.32,7c-6,1.23-9.84-.33-12.46-3.4s-4-7.59-5-12.36l9-2.77a24.33,24.33,0,0,0,2.3,7.22c1,2,2.36,3.13,4.36,2.72,2.77-.57,3.2-3.74,2.36-7.82-.42-2.08-2-4.29-3.87-6.52-1-1.06-2.08-2.2-3.22-3.32-2.36-2.23-5-4.77-7.71-7.55a37.07,37.07,0,0,1-6.63-8.94,17.43,17.43,0,0,1-1.84-5,18.29,18.29,0,0,1,.7-10.64,11.62,11.62,0,0,1,8.46-6.8c5.62-1.25,9.4.41,11.92,3.42a25.33,25.33,0,0,1,4.67,10.79Z" transform="translate(0 -48.86)"/><path class="cls-3" d="M664,862l2.77,8.51a17.81,17.81,0,0,1,.67,7.23,12.19,12.19,0,0,1-2.14,5.73A11.31,11.31,0,0,1,659,887.8a11.61,11.61,0,0,1-7.76.2,12,12,0,0,1-5-3.4,17.81,17.81,0,0,1-3.71-6.24l-11.87-36.48a17.78,17.78,0,0,1-.65-7.15,11.23,11.23,0,0,1,8.42-10.19,11.93,11.93,0,0,1,7.68-.17,12.41,12.41,0,0,1,5.13,3.46,17.52,17.52,0,0,1,3.68,6.16l2.77,8.51-8.5,2.76-2.77-8.5a5.6,5.6,0,0,0-2.61-3.44,3.2,3.2,0,0,0-2.33,0,3.16,3.16,0,0,0-2,3.18,9.7,9.7,0,0,0,.32,2.41l11.87,36.48a6.13,6.13,0,0,0,2.7,3.41,2.52,2.52,0,0,0,2,.09,3.08,3.08,0,0,0,2.38-3.28,6.24,6.24,0,0,0-.4-2.39l-2.77-8.51Z" transform="translate(0 -48.86)"/><path class="cls-3" d="M681.32,839.59a6.59,6.59,0,0,0,3.52-3.16c.77-1.72.83-4.37-1.08-8.56s-4-6-5.8-6.51a6.54,6.54,0,0,0-4.66.67Zm21.93,29.92-15.91-22.92L685,847.65l11.4,25-8.7,4-27-59.23,8.7-4c10.4-4.74,17.52-.88,22.63,10.32,2.69,5.88,3.58,11.9,1.31,15.66L712,865.53Z" transform="translate(0 -48.86)"/><path class="cls-3" d="M716.34,812.6l-1.1-1.3-.45.28.65,1.58,8.31,19,5.6-3.4Zm8.94,46-25.37-60.77,10-6.06,42.19,50.56-8,4.82-8.41-10.44-7.88,4.78,5.38,12.28Z" transform="translate(0 -48.86)"/><polygon class="cls-3" points="729.21 742.09 723.21 734.3 745.09 717.42 751.1 725.21 743.94 730.73 777.7 774.5 770.13 780.34 736.37 736.57 729.21 742.09"/><path class="cls-3" d="M799.26,774.09l6.2,6.46a17.75,17.75,0,0,1,3.76,6.21,12.2,12.2,0,0,1,.56,6.09,11.34,11.34,0,0,1-3.77,6.69,11.66,11.66,0,0,1-6.9,3.56,11.91,11.91,0,0,1-6-.88,17.82,17.82,0,0,1-6.06-4l-26.56-27.68a17.68,17.68,0,0,1-3.7-6.15,11.22,11.22,0,0,1,3.15-12.84,11.84,11.84,0,0,1,6.84-3.49,12.47,12.47,0,0,1,6.12.87,17.75,17.75,0,0,1,6,4l6.19,6.45-6.45,6.2-6.2-6.46a5.6,5.6,0,0,0-3.84-2,3.23,3.23,0,0,0-2.54,4.78,9.66,9.66,0,0,0,1.33,2L794,791.59a6.11,6.11,0,0,0,3.91,1.9,2.57,2.57,0,0,0,1.83-.78,3.09,3.09,0,0,0,.71-4,6.4,6.4,0,0,0-1.4-2l-6.2-6.45Z" transform="translate(0 -48.86)"/><polygon class="cls-3" points="815.99 696.93 811.26 702.67 833.12 720.71 827.03 728.09 776.81 686.65 782.9 679.27 803.67 696.41 808.41 690.67 787.63 673.53 793.72 666.15 843.95 707.59 837.86 714.97 815.99 696.93"/></g></g></g></svg>