<svg xmlns="http://www.w3.org/2000/svg" xmlns:xlink="http://www.w3.org/1999/xlink" viewBox="0 0 1080 930.22"><defs><style>.cls-1{fill:none;}.cls-2{fill:#fff;}.cls-3,.cls-5{fill:#0e0e10;}.cls-4{clip-path:url(#clip-path);}.cls-5{font-size:66.15px;font-family:BebasNeueRegular, Bebas Neue;}</style><clipPath id="clip-path" transform="translate(0 -48.91)"><rect class="cls-1" x="35.14" width="1009.71" height="1010.89"/></clipPath></defs><g id="Capa_2" data-name="Capa 2"><g id="Capa_1-2" data-name="Capa 1"><path class="cls-2" d="M21.46,486.39H1073.12c7.07,1.37,8.42,5.93,5.08,15.63-7.55,21.93-15.61,43.68-22.76,65.75a27.73,27.73,0,0,0,0,16c7.09,21.77,15,43.23,22.62,64.81,3.62,10.28,2.29,15.21-5.22,16.66L8.08,664.85c-8.31-1.05-9.74-5.48-6-16.17C9.67,626.75,17.7,605,25,582.94a24.46,24.46,0,0,0,0-14.23c-7.47-22.64-15.67-45-23.47-67.53-3.68-10.6-.92-14.71,9.87-14.76C14.75,486.4,18.11,486.4,21.46,486.39Z" transform="translate(0 -48.91)"/><path class="cls-2" d="M1004.57,514c0,256.88-208,465.12-464.57,465.12S75.43,770.9,75.43,514,283.42,48.91,540,48.91,1004.57,257.15,1004.57,514Z" transform="translate(0 -48.91)"/><path class="cls-3" d="M97.53,494.59c5.84-228,200-423.1,438.1-423.92C654,70.27,757.24,110.36,843.29,192S974.06,374.84,981.54,494.15h35c8.86,0,17.72-.06,26.58,0,11,.11,13.68,3.95,9.82,14.58-7.19,19.88-14.88,39.58-21.7,59.58a24,24,0,0,0,0,14.49c6.75,19.72,14.3,39.17,21.56,58.73,4.2,11.33,1.42,15.51-10.48,15.52-25.43,0-50.86.23-76.29-.13-5.82-.08-8.38,1.53-10.43,7.13-37,101-101.74,179.29-194.48,233.58-83.83,49.07-174.58,67.55-271,56.75-104.44-11.7-193.28-56-266.84-130.85a430.91,430.91,0,0,1-99.25-158.64c-2.38-6.65-5.37-8.6-12.12-8.5-24.85.38-49.71.18-74.57.13-11.73,0-14.22-3.64-10.1-14.9,7.26-19.86,14.91-39.59,21.85-59.57a21,21,0,0,0,0-12.88C42,548.67,34.21,528.4,26.78,508c-3.5-9.61-.87-13.33,9.4-13.38C56.43,494.53,76.67,494.59,97.53,494.59Z" transform="translate(0 -48.91)"/><ellipse class="cls-2" cx="540" cy="465.11" rx="429" ry="429.5"/><polygon class="cls-3" points="91.71 445.68 987.85 445.24 988.29 608.22 91.71 607.69 91.71 445.68"/><path class="cls-2" d="M65.74,506.15h958.38c6.44,1.07,7.67,4.62,4.63,12.18-6.88,17.08-14.23,34-20.75,51.22a18.69,18.69,0,0,0,0,12.46c6.46,17,13.68,33.67,20.62,50.48,3.3,8,2.08,11.85-4.76,13l-970.32-.3c-7.57-.82-8.88-4.27-5.49-12.59C55,615.5,62.31,598.54,69,581.36a16.35,16.35,0,0,0,0-11.08c-6.81-17.63-14.28-35.06-21.39-52.6-3.35-8.26-.84-11.46,9-11.5C59.63,506.16,62.69,506.16,65.74,506.15Z" transform="translate(0 -48.91)"/><ellipse class="cls-2" cx="540" cy="465.11" rx="261" ry="261.3"/><ellipse class="cls-3" cx="540" cy="465.11" rx="240.86" ry="241.14"/><rect class="cls-3" x="383.5" y="333.74" width="303.43" height="255.73"/><path class="cls-2" d="M497.33,708.09c-33.45,17-69.69-1.09-76.14-40.17H407.91c-30.85,0-51.15-18.77-53.53-49.41a25.65,25.65,0,0,1-.1-4.29c1.15-12.5-1.21-22.05-11.91-31.68-19.67-17.7-18.87-44.69-1.07-68.59-8.15-9.68-13.15-20.81-13.14-33.93,0-17.26,6.87-31.12,20.67-41.18,4.26-3.1,5.58-6.22,5.53-11.27-.07-8.83,0-17.8,1.43-26.47,4.09-24.46,23.89-40.83,48.63-41.07,5.42,0,10.84,0,17,0,2.83-17.9,11-32.47,27.4-41,16.13-8.39,32.44-7.22,48.19,1.08,26.37-34.68,66.15-27.62,85.49.09,15.91-8.19,32.33-9.67,48.76-1,16.15,8.56,24.18,22.75,27,40.81,5.73,0,11.12-.06,16.52,0,27.72.36,48.08,19.59,50.13,47.32a25.59,25.59,0,0,1,.17,4.28c-1.38,13.8,1.86,24.34,13.17,34.78,18.85,17.38,17.74,42.22,1.63,65.69,3.9,10.25,8.91,19.38,10.77,29.11,3.78,19.77-4,36.06-19.75,47.94-4.61,3.47-5.75,6.78-5.83,11.94-.16,9.4.1,19-1.79,28.12-4.81,23.21-23.41,38-47,38.71-5.95.17-11.91,0-17.75,0-4.8,34.69-38.08,58.45-76,40.17C559.28,739.75,518.92,738.51,497.33,708.09ZM711.18,514.18c6.17-4.73,12.08-7.87,16.09-12.61a34,34,0,0,0-11.48-52.81c-5.25-2.51-7.2-5.36-7-11,.36-9.43.32-18.89-.13-28.31-.94-19.92-14.32-32.74-34.24-33.17-6-.13-12,0-18,0-13.92,0-13.92,0-14.7-13.82-.82-14.37-10.22-26.91-23.19-30.91a34.31,34.31,0,0,0-37,11.08c-1.57,2-4,3.24-6,4.83a53.58,53.58,0,0,1-2.41-6.81c-3.47-16-17.6-28-32.69-27.59-17.5.43-30.37,11.44-33.49,28.48-.41,2.23-1.44,4.34-2.85,8.45-3.11-3.77-4.79-5.9-6.57-7.94-9.9-11.4-24.82-15.54-37.93-9.81-14.57,6.37-22,17.76-21.13,33.88.43,7.61-1.93,11-10.11,10.3-7.94-.67-16-.31-24-.08-17.38.48-30.11,11.07-32.39,28.26-1.45,11-1.32,22.21-1.33,33.33,0,5.43-1.18,8.46-6.74,11-20.74,9.52-25.9,34.68-11,52.38,4,4.8,9.45,8.44,14.68,13a29.67,29.67,0,0,1-4.12,3.3c-12.93,6.79-19.34,17.74-18.91,32s8.09,24.4,21.05,30.77c2.29,1.13,4.46,4.84,4.64,7.51.6,8.54,0,17.15.3,25.72.83,24.94,15.27,39.88,39.16,38.08,6.54-.49,13.17.3,19.7-.2,6.93-.53,9.38,2.51,8.91,9a44.28,44.28,0,0,0,.06,5.15c.67,14.74,9.26,26.28,22.95,30.88,12.7,4.27,27.21,0,36.33-10.69,1.73-2,3.55-4,6.91-7.72,3.89,22,13.69,36.89,35.6,36.72,21.65-.17,31.13-15.4,35.19-37,3.51,4.12,5.27,6.21,7.06,8.27,14.09,16.26,38.82,16.53,51.32-.6,4.56-6.25,6.69-15,7.8-22.89,1.51-10.84.64-11,11.93-11,6.28,0,12.57,0,18.85,0,22.5,0,35.65-12.67,36.47-35.28.31-8.57.47-17.18.06-25.73-.29-5.93,1.53-8.92,7.26-11.53,12.5-5.68,18.79-16.28,19-30.07.24-13.45-5.65-23.61-17.25-30.45C715.85,517.36,713.93,516,711.18,514.18Z" transform="translate(0 -48.91)"/><path d="M711.18,514.18c2.75,1.8,4.67,3.18,6.7,4.37,11.6,6.84,17.49,17,17.25,30.45-.24,13.79-6.53,24.39-19,30.07-5.73,2.61-7.55,5.6-7.26,11.53.41,8.55.25,17.16-.06,25.73-.82,22.61-14,35.24-36.47,35.28-6.28,0-12.57,0-18.85,0-11.29,0-10.42.14-11.93,11-1.11,7.9-3.24,16.64-7.8,22.89-12.5,17.13-37.23,16.86-51.32.6-1.79-2.06-3.55-4.15-7.06-8.27-4.06,21.57-13.54,36.8-35.19,37-21.91.17-31.71-14.76-35.6-36.72-3.36,3.74-5.18,5.69-6.91,7.72-9.12,10.68-23.63,15-36.33,10.69-13.69-4.6-22.28-16.14-22.95-30.88a44.28,44.28,0,0,1-.06-5.15c.47-6.46-2-9.5-8.91-9-6.53.5-13.16-.29-19.7.2-23.89,1.8-38.33-13.14-39.16-38.08-.28-8.57.3-17.18-.3-25.72-.18-2.67-2.35-6.38-4.64-7.51C352.64,574,345,564,344.55,549.6s6-25.25,18.91-32a29.67,29.67,0,0,0,4.12-3.3c-5.23-4.55-10.64-8.19-14.68-13-14.94-17.7-9.78-42.86,11-52.38,5.56-2.56,6.73-5.59,6.74-11,0-11.12-.12-22.35,1.33-33.33,2.28-17.19,15-27.78,32.39-28.26,8-.23,16-.59,24,.08,8.18.69,10.54-2.69,10.11-10.3-.91-16.12,6.56-27.51,21.13-33.88,13.11-5.73,28-1.59,37.93,9.81,1.78,2,3.46,4.17,6.57,7.94,1.41-4.11,2.44-6.22,2.85-8.45,3.12-17,16-28.05,33.49-28.48,15.09-.37,29.22,11.62,32.69,27.59a53.58,53.58,0,0,0,2.41,6.81c2-1.59,4.46-2.87,6-4.83a34.31,34.31,0,0,1,37-11.08c13,4,22.37,16.54,23.19,30.91.78,13.84.78,13.83,14.7,13.82,6,0,12-.08,18,0,19.92.43,33.3,13.25,34.24,33.17.45,9.42.49,18.88.13,28.31-.21,5.65,1.74,8.5,7,11a34,34,0,0,1,11.48,52.81C723.26,506.31,717.35,509.45,711.18,514.18Zm-18.5-16.92c19-3.17,25.15-7.43,24.84-17.88-.1-3.45-1.41-8.38-3.87-9.93-6.15-3.87-13.28-6.19-21.61-9.83v-7.14c0-12.87.2-25.74,0-38.61-.26-14.05-6.09-19.8-19.89-20-8.28-.12-16.57,0-24.85,0H624.94c0-6.42.09-11.25,0-16.07s-.14-9.74-.71-14.55c-1.12-9.45-8.67-16-17.34-15.33-8.46.61-14.6,7.36-14.9,16.81-.24,7.43-.36,14.88,0,22.3.23,5.29-1.79,7.15-7,6.94-7.13-.29-14.29-.24-21.42,0-5.12.18-7.1-1.81-7-7,.21-12.57.15-25.16,0-37.74-.18-11.27-7.14-18.82-16.84-18.71S523.58,338,523.5,349.68c-.1,12.59.13,25.17-.23,37.75-.06,2.15-2.28,6-3.65,6.08-10.16.52-20.37.28-31.44.28,0-9.52.16-17.77,0-26-.28-11.76-6.72-18.72-16.81-18.55-9.93.16-16.11,7.48-16.15,19.16,0,8.18,0,16.36,0,25.47-15.5,0-29.72-.05-43.93,0-18.75.09-23.13,4.5-23.16,23.22,0,15,0,30.07,0,44.91-20.15,2.37-26.54,6.35-26.62,17-.14,18.12,14.26,16.52,26.13,17.88v34.6c-12.71-.39-25.6,1.3-25.93,16.7-.35,16.28,13.16,17.37,26.35,17.26,0,16.3,0,31.68,0,47.06,0,16.7,5.23,21.87,22.15,21.92,14.79.05,29.59,0,45,0v14.36c0,4.86-.1,9.73,0,14.58.29,10.82,6.92,18.17,16.37,18.32s16.3-7.13,16.68-18c.21-6-.37-12,.21-18,.19-2,2.77-5.31,4.4-5.39,9.87-.51,19.78-.25,30.66-.25,0,13.71-.07,26.22,0,38.72.08,11.93,6.85,19.7,16.86,19.54,9-.13,15.92-8.35,16.12-19.6.19-10.58-.14-21.17.21-31.74.08-2.33,2-6.53,3.19-6.59,10.39-.53,20.82-.3,32-.3,0,9.18-.21,16.86.06,24.52.3,8.9,6.43,15.4,14.68,16.14,8.59.78,16.09-5,17.34-14.16.85-6.2.71-12.53.88-18.81.12-4.43,0-8.87,0-13.76,17.43,0,33.7.28,49.94-.1,10.41-.24,15.64-5.38,16.88-15.6a110,110,0,0,0,.33-12.85c0-13.07,0-26.14,0-38.95C712.48,562.17,718,558,717.72,548c-.28-9.62-7-14.28-25-17.11Z" transform="translate(0 -48.91)"/><path class="cls-2" d="M692.68,497.26v33.58c18.06,2.83,24.76,7.49,25,17.11.29,10.09-5.24,14.22-25.65,18.53,0,12.81,0,25.88,0,38.95a110,110,0,0,1-.33,12.85c-1.24,10.22-6.47,15.36-16.88,15.6-16.24.38-32.51.1-49.94.1,0,4.89.09,9.33,0,13.76-.17,6.28,0,12.61-.88,18.81-1.25,9.16-8.75,14.94-17.34,14.16-8.25-.74-14.38-7.24-14.68-16.14-.27-7.66-.06-15.34-.06-24.52-11.21,0-21.64-.23-32,.3-1.22.06-3.11,4.26-3.19,6.59-.35,10.57,0,21.16-.21,31.74-.2,11.25-7.11,19.47-16.12,19.6-10,.16-16.78-7.61-16.86-19.54-.08-12.5,0-25,0-38.72-10.88,0-20.79-.26-30.66.25-1.63.08-4.21,3.39-4.4,5.39-.58,6,0,12-.21,18-.38,10.88-7.24,18.15-16.68,18s-16.08-7.5-16.37-18.32c-.13-4.85,0-9.72,0-14.58V634.4c-15.4,0-30.2,0-45,0-16.92,0-22.13-5.22-22.15-21.92,0-15.38,0-30.76,0-47.06-13.19.11-26.7-1-26.35-17.26.33-15.4,13.22-17.09,25.93-16.7v-34.6c-11.87-1.36-26.27.24-26.13-17.88.08-10.6,6.47-14.58,26.62-17,0-14.84,0-29.88,0-44.91,0-18.72,4.41-23.13,23.16-23.22,14.21-.07,28.43,0,43.93,0,0-9.11,0-17.29,0-25.47,0-11.68,6.22-19,16.15-19.16,10.09-.17,16.53,6.79,16.81,18.55.2,8.23,0,16.48,0,26,11.07,0,21.28.24,31.44-.28,1.37-.07,3.59-3.93,3.65-6.08.36-12.58.13-25.16.23-37.75.08-11.71,6.34-19.05,16.15-19.16s16.66,7.44,16.84,18.71c.2,12.58.26,25.17,0,37.74-.09,5.19,1.89,7.18,7,7,7.13-.26,14.29-.31,21.42,0,5.17.21,7.19-1.65,7-6.94-.32-7.42-.2-14.87,0-22.3.3-9.45,6.44-16.2,14.9-16.81,8.67-.62,16.22,5.88,17.34,15.33.57,4.81.6,9.7.71,14.55s0,9.65,0,16.07h22.32c8.28,0,16.57-.1,24.85,0,13.8.2,19.63,5.95,19.89,20,.24,12.87,0,25.74,0,38.61v7.14c8.33,3.64,15.46,6,21.61,9.83,2.46,1.55,3.77,6.48,3.87,9.93C717.83,489.83,711.65,494.09,692.68,497.26Zm-11-23.88c0-19.51,0-37.76,0-56,0-12.92-.55-13.42-13.68-13.43-17.63,0-35.27,0-53.56,0,0-12.38.07-23.78,0-35.19,0-4.52.44-10-6.23-10.08s-6.37,5.23-6.37,9.9c0,11.62,0,23.24,0,34.92H546.07c0-3.32,0-6.11,0-8.91,0-14.87.29-29.76-.29-44.61-.12-3-3.18-8-5.59-8.44-5.91-1.17-6.38,4-6.42,8.54,0,2.86-.06,5.72-.06,8.58v44.61h-56c0-11.23.06-21.77,0-32.31,0-4.71,1.24-11.12-5.78-11.22-7.67-.1-6.25,6.67-6.31,11.61-.12,10.5,0,21,0,32.13-3.77.2-6.55.45-9.33.46-16,.07-32,.2-48,.07-7.11-.06-10.35,2.69-10.21,10.17.3,16.58.09,33.17,0,49.76,0,3-.36,6-.58,9.4-6.72,0-12.53-.67-18.07.28-2.84.48-5.18,3.85-7.75,5.91,2.58,2,5,5.38,7.79,5.83,5.76.92,11.76.27,17.88.27V542.4c-6.28,0-11.83-.73-17,.27-3.11.6-5.69,3.94-8.51,6.05,2.85,2.07,5.44,4.93,8.62,6s6.81.43,10.21.11c6.06-.57,7.79,2,7.68,7.93-.33,17.15.17,34.32-.1,51.48-.12,7.08,2.83,9.88,9.59,9.81,12.86-.13,25.72-.06,38.57-.08h19.24c0,13.48,0,25.44,0,37.41,0,4.37-.26,9.44,5.76,9.56,6.63.14,6.32-5.26,6.33-9.91,0-11.94,0-23.88,0-36.39h56.05V638.9c0,13.73-.31,27.47.3,41.17.12,2.64,3.85,5.11,5.92,7.66,2-2.61,5.71-5.13,5.84-7.83.62-12.84.28-25.73.28-38.6V624.58h55.71c0,12,0,23.44,0,34.83,0,5-.4,10.9,6.44,10.74s6.17-6.17,6.17-11.09c0-11.35,0-22.71,0-34.63,4-.18,7-.44,10.08-.45,15.72-.05,31.43-.21,47.14,0,7.34.12,10.37-2.81,10.1-10.2-.34-9.43-.05-18.88-.05-28.32,0-9.89,0-19.78,0-30.65h15.61c4.8,0,9.94-.33,9.81-6.67-.12-5.94-5.09-5.89-9.53-5.86-5,0-10.06,0-15.32,0v-56.2c3.37-.21,6.23-.07,8.94-.63,5.69-1.16,15.63,4,15.6-6.21,0-9.48-9.62-4.83-15.14-5.84C688.88,473,686,473.38,681.65,473.38Z" transform="translate(0 -48.91)"/><path d="M681.65,473.38c4.33,0,7.23-.41,10,.08,5.52,1,15.12-3.64,15.14,5.84,0,10.23-9.91,5.05-15.6,6.21-2.71.56-5.57.42-8.94.63v56.2c5.26,0,10.29,0,15.32,0,4.44,0,9.41-.08,9.53,5.86.13,6.34-5,6.66-9.81,6.67H681.64c0,10.87,0,20.76,0,30.65,0,9.44-.29,18.89.05,28.32.27,7.39-2.76,10.32-10.1,10.2-15.71-.26-31.42-.1-47.14,0-3.07,0-6.13.27-10.08.45,0,11.92,0,23.28,0,34.63,0,4.92.6,10.93-6.17,11.09s-6.46-5.77-6.44-10.74c0-11.39,0-22.79,0-34.83H546.08V641.3c0,12.87.34,25.76-.28,38.6-.13,2.7-3.8,5.22-5.84,7.83-2.07-2.55-5.8-5-5.92-7.66-.61-13.7-.29-27.44-.3-41.17V624.62H477.69c0,12.51,0,24.45,0,36.39,0,4.65.3,10-6.33,9.91-6-.12-5.76-5.19-5.76-9.56,0-12,0-23.93,0-37.41H446.35c-12.85,0-25.71-.05-38.57.08-6.76.07-9.71-2.73-9.59-9.81.27-17.16-.23-34.33.1-51.48.11-6-1.62-8.5-7.68-7.93-3.4.32-7.12.92-10.21-.11s-5.77-3.91-8.62-6c2.82-2.11,5.4-5.45,8.51-6.05,5.22-1,10.77-.27,17-.27V485.62c-6.12,0-12.12.65-17.88-.27-2.83-.45-5.21-3.79-7.79-5.83,2.57-2.06,4.91-5.43,7.75-5.91,5.54-.95,11.35-.28,18.07-.28.22-3.39.57-6.4.58-9.4.07-16.59.28-33.18,0-49.76-.14-7.48,3.1-10.23,10.21-10.17,16,.13,32,0,48-.07,2.78,0,5.56-.26,9.33-.46,0-11.13-.08-21.63,0-32.13.06-4.94-1.36-11.71,6.31-11.61,7,.1,5.75,6.51,5.78,11.22.09,10.54,0,21.08,0,32.31h56V358.65c0-2.86,0-5.72.06-8.58,0-4.52.51-9.71,6.42-8.54,2.41.48,5.47,5.42,5.59,8.44.58,14.85.28,29.74.29,44.61,0,2.8,0,5.59,0,8.91h55.69c0-11.68,0-23.3,0-34.92,0-4.67-.28-10,6.37-9.9s6.19,5.56,6.23,10.08c.11,11.41,0,22.81,0,35.19,18.29,0,35.93,0,53.56,0,13.13,0,13.65.51,13.68,13.43C681.68,435.62,681.65,453.87,681.65,473.38ZM533,416.71c-17.22,0-33.74-.16-50.25.22-1.7,0-4.7,3.23-4.75,5-.39,15.42-.38,30.86-.08,46.29,0,1.7,2.62,4.78,4.07,4.81,16.77.34,33.56.21,51,.21ZM410.91,473.3c17.21,0,33.42.21,49.62-.31,1.76-.05,4.76-4.27,4.86-6.66.51-11.7.35-23.43.2-35.15-.2-16.43,2.38-14.44-14.56-14.52-13.29-.07-26.58,0-40.12,0ZM669.26,542c0-17.76.18-34.54-.27-51.32,0-1.73-3.74-4.73-5.84-4.82-11.11-.5-22.24-.37-33.36-.24-17.75.21-15.23-2.7-15.4,15.33-.12,13.57,0,27.15,0,41.05Zm-136.13-56.4c-10.21,0-19.83-.13-29.45,0-8.2.15-19.37-2.42-23.75,1.85S478,503,477.8,511.14c-.22,10.17-.05,20.35-.05,30.66h55.38Zm-54.21,69.84v55.3h54.19v-55.3Zm122.32-138H546.78v55.3h54.46ZM411,542.27c17.25,0,33.48.19,49.7-.27,1.7,0,4.6-3.75,4.72-5.89.53-9.12.2-18.28.22-27.43,0-23.11,0-23.11-23.28-23.11H411Zm190.24-56.59c-17.22,0-34-.1-50.7.18-1.47,0-4.13,2.5-4.15,3.87-.29,17.29-.19,34.58-.19,52h55Zm68-68.5h-54v56.18c16.72,0,32.65.13,48.58-.18,1.83,0,5.16-2.44,5.19-3.8C669.29,452.06,669.17,434.73,669.17,417.18ZM411.23,555.47v55.24h53.83V555.47Zm203.59,55.38h53.64V555.73H614.82Zm-13.44-55.1H546.8v54.91h54.58Z" transform="translate(0 -48.91)"/><path class="cls-2" d="M533,416.71v56.55c-17.45,0-34.24.13-51-.21-1.45,0-4-3.11-4.07-4.81-.3-15.43-.31-30.87.08-46.29,0-1.79,3-5,4.75-5C499.3,416.55,515.82,416.71,533,416.71Zm-38.88,46.43c8.51,0,16.42.26,24.29-.2,1.67-.1,4.48-2.72,4.58-4.31.47-7.85.21-15.75.21-23.88H494.16Z" transform="translate(0 -48.91)"/><path class="cls-2" d="M410.91,473.3V416.64c13.54,0,26.83-.05,40.12,0,16.94.08,14.36-1.91,14.56,14.52.15,11.72.31,23.45-.2,35.15-.1,2.39-3.1,6.61-4.86,6.66C444.33,473.51,428.12,473.3,410.91,473.3Zm15.8-38.71c0,8.55-.25,16,.19,23.34.11,1.79,2.44,4.82,3.9,4.91,7.82.49,15.7.23,23.67.23V434.59Z" transform="translate(0 -48.91)"/><path class="cls-2" d="M669.26,542H614.37c0-13.9-.1-27.48,0-41.05.17-18-2.35-15.12,15.4-15.33,11.12-.13,22.25-.26,33.36.24,2.1.09,5.8,3.09,5.84,4.82C669.44,507.45,669.26,524.23,669.26,542Zm-38.73-11H659c0-7.82-.2-14.91.07-22,.19-4.88-1.8-6.47-6.52-6.44-27.1.23-21.37-3.71-22,20.8C630.48,525.57,630.53,527.84,630.53,530.94Z" transform="translate(0 -48.91)"/><path class="cls-2" d="M533.13,485.59V541.8H477.75c0-10.31-.17-20.49.05-30.66.18-8.18-2.18-19.46,2.13-23.66s15.55-1.7,23.75-1.85C513.3,485.46,522.92,485.59,533.13,485.59Zm-9.78,17.46c-9,0-17-.26-24.83.21-1.66.1-4.28,2.71-4.57,4.47-3.64,22.43.76,26.91,23.53,25.14,4.35-.34,6.07-1.83,5.93-6.21C523.19,519.27,523.35,511.88,523.35,503.05Z" transform="translate(0 -48.91)"/><path class="cls-2" d="M478.92,555.43h54.19v55.3H478.92Zm43.82,45.93V572.54H494.33v28.82Z" transform="translate(0 -48.91)"/><path class="cls-2" d="M601.24,417.43v55.3H546.78v-55.3ZM562.6,462.77h28.52V434.85H562.6Z" transform="translate(0 -48.91)"/><path class="cls-2" d="M411,542.27v-56.7h31.36c23.31,0,23.3,0,23.28,23.11,0,9.15.31,18.31-.22,27.43-.12,2.14-3,5.85-4.72,5.89C444.45,542.46,428.22,542.27,411,542.27Zm16.17-38.67v28.48h27.23V503.6Z" transform="translate(0 -48.91)"/><path class="cls-2" d="M601.21,485.68v56.08h-55c0-17.45-.1-34.74.19-52,0-1.37,2.68-3.85,4.15-3.87C567.24,485.58,584,485.68,601.21,485.68Zm-38.63,46.43h28.06V503.65H562.58Z" transform="translate(0 -48.91)"/><path class="cls-2" d="M669.17,417.18c0,17.55.12,34.88-.24,52.2,0,1.36-3.36,3.77-5.19,3.8-15.93.31-31.86.18-48.58.18V417.18Zm-38.17,45h27.5V433.51H631Z" transform="translate(0 -48.91)"/><path class="cls-2" d="M411.23,555.47h53.83v55.24H411.23Zm43.27,45.91V572.6H427.28v28.78Z" transform="translate(0 -48.91)"/><path class="cls-2" d="M614.82,610.85V555.73h53.64v55.12Zm44.1-9.45c0-8.57.24-16.23-.17-23.86-.1-1.91-2.18-5.23-3.51-5.32-8.09-.5-16.21-.25-24.13-.25V601.4Z" transform="translate(0 -48.91)"/><path class="cls-2" d="M601.38,555.75v54.91H546.8V555.75Zm-38.69,45.32H591.3V572.4H562.69Z" transform="translate(0 -48.91)"/><path class="cls-3" d="M787.57,688c-19.45-.87-19-.42-30.26,11.72C744.69,713.24,732,727,717.73,738.73c-121.37,99.43-303.76,78-398.93-46.89-7.81-10.26-15.87-10-26.37-8.92,46.77,74.25,140.88,138,255,134.54C648.12,814.45,726.86,769.75,787.57,688Z" transform="translate(0 -48.91)"/><g class="cls-4"><polygon class="cls-3" points="289.5 388.02 285.19 402.42 154.29 381.6 159.42 364.46 227.02 376.73 231.23 377.62 231.64 376.25 227.69 374.5 164.66 346.98 168.66 333.62 236.42 345.37 240.68 346.09 241.09 344.72 237.09 343.14 173.9 316.13 179.04 299 299.77 353.75 295.46 368.14 233.32 358.82 225.65 357.64 225.45 358.33 232.5 361.57 289.5 388.02"/><path class="cls-3" d="M253,305.87l-3.12-1.46-.6.89,2.52,2.35,31.29,27.79,7.39-11Zm55.23,76.74-97.84-90,13.18-19.59,120,57-10.49,15.58-24.23-12-10.38,15.43,20.23,18Z" transform="translate(0 -48.91)"/><polygon class="cls-3" points="312.21 159.07 292.43 176.92 315.52 202.57 328.8 190.59 342.08 205.35 328.8 217.33 367.09 259.86 352.75 272.8 264.81 175.1 298.93 144.32 312.21 159.07"/><polygon class="cls-3" points="383.09 115.45 359.85 128.45 376.67 158.6 392.27 149.87 401.95 167.21 386.35 175.94 414.25 225.92 397.4 235.34 333.32 120.54 373.42 98.11 383.09 115.45"/><polygon class="cls-3" points="412.12 82.64 430.63 77.16 462.79 186.12 487.3 178.87 492.36 196.03 449.34 208.76 412.12 82.64"/><polygon class="cls-3" points="496.39 63.2 540.45 60.4 541.7 80.22 516.91 81.8 519.1 116.26 536.93 115.13 538.27 136.2 520.43 137.33 522.72 173.4 547.51 171.83 548.77 191.65 504.71 194.45 496.39 63.2"/><polygon class="cls-3" points="650.12 154.52 635.9 149.71 617.58 203.94 599.29 197.75 641.38 73.17 659.66 79.36 642.25 130.89 656.47 135.71 673.88 84.18 692.16 90.37 650.08 214.95 631.8 208.76 650.12 154.52"/><path class="cls-3" d="M748.51,201.66c2-3,2.77-5.47,2.47-8.24A5.6,5.6,0,0,0,748.5,190c-2.83-1.88-5.56-.68-7.44.86a13.58,13.58,0,0,0-3.27,3.62L694.94,259c-2.08,3.13-2.72,5.71-2.32,8.34a5.11,5.11,0,0,0,2.33,3.27c2.83,1.89,5.36,1,7.44-.85a12.52,12.52,0,0,0,3.26-3.62Zm-26.79,75.21A35.63,35.63,0,0,1,711.13,287a24.52,24.52,0,0,1-11.75,3.79c-4.56.4-9.46-.93-14.82-4.5s-8.63-7.68-10-12.05a24.18,24.18,0,0,1-.9-12.21,35.91,35.91,0,0,1,5.24-13.7l42.85-64.51a35.77,35.77,0,0,1,10.5-10,24.62,24.62,0,0,1,11.69-4c4.46-.25,9.62,1,15,4.6s8.38,7.73,9.88,11.95a25.15,25.15,0,0,1,1,12.45,35.73,35.73,0,0,1-5.14,13.56Z" transform="translate(0 -48.91)"/><path class="cls-3" d="M850.86,260.65l-78,69.45a35.64,35.64,0,0,1-12.82,7.11,24.51,24.51,0,0,1-12.32.68c-4.51-.78-8.92-3.31-13.2-8.13s-6.4-9.62-6.64-14.2a24.09,24.09,0,0,1,2.23-12,35.75,35.75,0,0,1,8.54-11.92l78-69.45,12.83,14.44L751.5,306c-2.81,2.5-4.08,4.83-4.36,7.48a5.15,5.15,0,0,0,1.42,3.76c2.26,2.54,4.93,2.31,7.41,1.06a12.59,12.59,0,0,0,4.08-2.67l78-69.45Z" transform="translate(0 -48.91)"/><path class="cls-3" d="M862.22,346.87c3.81-2,8-4.32,10.8-7.15,2.61-2.74,3.94-5.64,2.56-8.35-2.44-4.37-7.79-3.44-14.63.06-4,2-7.22,5.92-10.37,10.75s-6.05,10.54-9.27,16.41a201.42,201.42,0,0,1-12.2,20.12c-4.34,6.05-9.33,11.21-15.69,14.48-7.79,4-15.76,6.47-23,5.58s-13.79-5-18.6-14.39c-5.62-11-4.66-19.32-.09-26.08s12.6-11.89,21.35-16.37L803.25,358c-4.93,2.53-9.78,5.22-12.79,8.37-3.24,3.07-4.81,6.29-2.94,9.95,2.61,5.1,9,4.23,16.47.4,3.82-2,7.3-6.15,10.61-11.06,1.49-2.58,3.14-5.23,4.72-8,3.06-5.79,6.59-12.23,10.52-19.07a75.1,75.1,0,0,1,13.82-17.73,35,35,0,0,1,8.66-6.25c6.36-3.26,13.93-5.33,21.06-4.36,7,1.05,13.47,4.75,17.78,12.79,5.46,10.27,4.26,18.53-.24,25s-12,11.56-18.48,14.9Z" transform="translate(0 -48.91)"/><polygon class="cls-3" points="917.11 341.55 927.43 384.52 908.14 389.16 902.34 364.98 868.8 373.05 872.97 390.45 852.47 395.38 848.29 377.98 813.19 386.43 819 410.61 799.71 415.25 789.39 372.28 917.11 341.55"/><text class="cls-5" transform="translate(77.29 550.42)">I</text><text class="cls-5" transform="translate(87.73 550.42)">N</text><text class="cls-5" transform="translate(114.75 550.42)">S</text><text class="cls-5" transform="translate(139.33 550.42)">T</text><text class="cls-5" transform="translate(163.31 550.42)">I</text><text class="cls-5" transform="translate(173.75 550.42)">T</text><text class="cls-5" transform="translate(197.73 550.42)">U</text><text class="cls-5" transform="translate(223.3 550.42)">T</text><text class="cls-5" transform="translate(247.28 550.42)">O</text><text class="cls-5" transform="translate(800.36 550.42)">J</text><text class="cls-5" transform="translate(817.21 550.42)">U</text><text class="cls-5" transform="translate(842.77 550.42)">V</text><text class="cls-5" transform="translate(870.39 550.42)">E</text><text class="cls-5" transform="translate(894.17 550.42)">N</text><text class="cls-5" transform="translate(921.19 550.42)">I</text><text class="cls-5" transform="translate(931.63 550.42)">L</text><text class="cls-5" transform="translate(953.9 550.42)">I</text><text class="cls-5" transform="translate(964.34 550.42)">A</text><polygon class="cls-3" points="246.1 720.95 273.37 689.79 275.24 687.74 274.9 687.34 241.57 715.6 235.85 708.83 285.53 666.7 293.09 675.63 274.04 699.22 271.69 701.8 271.8 701.93 274.73 700.03 301.1 685.1 308.66 694.04 258.98 736.17 253.25 729.4 286.58 701.14 286.23 700.74 283.91 702.24 248.73 724.06 246.1 720.95"/><path class="cls-3" d="M312.6,775.67l.93-1.42-.4-.36L311.81,775,296,788.37l4.86,4.41Zm-41.5,21.74,51-41.74,8.67,7.86-36.39,54.94-6.9-6.25,7.61-11.05L288.22,795,278,803.65Z" transform="translate(0 -48.91)"/><path class="cls-3" d="M320.93,826.63c2.67,1.89,4.39,2.68,7,.64a28.31,28.31,0,0,0,4.72-5.13c1.87-2.48,4.28-5.88,7.35-10.22s5.48-7.74,7.21-10.32a29.76,29.76,0,0,0,3.27-6.16c1-3.1-.31-4.46-3-6.36Zm-13.34,2.27,37.66-53.18,6.15,4.37c7.22,5.13,10.1,9.34,9.32,14.88s-5.27,12.35-12.65,22.77-12.33,16.79-17.22,19.41-9.89,1.24-17.12-3.89Z" transform="translate(0 -48.91)"/><polygon class="cls-3" points="376.65 748.09 395.79 758.72 391.01 767.33 380.25 761.35 371.95 776.31 379.69 780.62 374.62 789.77 366.88 785.46 358.19 801.13 368.96 807.11 364.19 815.72 345.05 805.09 376.65 748.09"/><polygon class="cls-3" points="442.13 788.21 429.7 783.78 423.97 799.9 432.31 802.88 429.02 812.15 420.67 809.18 411.17 835.92 402.15 832.71 423.98 771.29 445.43 778.93 442.13 788.21"/><path class="cls-3" d="M456.67,860.62a6.62,6.62,0,0,0,4.72-.33c1.67-.88,3.34-2.94,4.41-7.43s.52-7.17-.57-8.7a6.49,6.49,0,0,0-4.09-2.34Zm-1.09,37.12,1.53-27.89-2.5-.6L448.25,896l-9.31-2.22L454,830.36l9.31,2.22c11.11,2.65,14.35,10.08,11.5,22.08-1.5,6.29-4.49,11.6-8.6,13.17L464.88,900Z" transform="translate(0 -48.91)"/><path class="cls-3" d="M503.6,853.34a5.94,5.94,0,0,0-.74-4.2,2.8,2.8,0,0,0-1.85-.94,3,3,0,0,0-3.1,2,6.94,6.94,0,0,0-.64,2.34l-4.56,38.13a5.64,5.64,0,0,0,.84,4.21,2.51,2.51,0,0,0,1.76.92,2.8,2.8,0,0,0,3.1-2,6.18,6.18,0,0,0,.63-2.33Zm4.94,39.27a17.69,17.69,0,0,1-2.42,6.85,12.28,12.28,0,0,1-4.35,4.3,11.36,11.36,0,0,1-7.57,1.33,11.63,11.63,0,0,1-7.12-3.09,12,12,0,0,1-3.13-5.2,17.82,17.82,0,0,1-.74-7.23l4.56-38.13a17.67,17.67,0,0,1,2.42-6.77A11.2,11.2,0,0,1,502.11,839a11.91,11.91,0,0,1,7,3.07,12.43,12.43,0,0,1,3.2,5.3,17.57,17.57,0,0,1,.75,7.15Z" transform="translate(0 -48.91)"/><polygon class="cls-3" points="541.99 858.19 535.43 817.29 535.05 814.54 534.52 814.55 534.99 858.27 526.13 858.37 525.42 793.18 537.12 793.05 543.11 822.79 543.59 826.24 543.77 826.24 544.17 822.78 549.52 792.92 561.21 792.79 561.92 857.98 553.06 858.07 552.59 814.35 552.05 814.36 551.73 817.11 546.07 858.15 541.99 858.19"/><path class="cls-3" d="M611.71,851.63a21.55,21.55,0,0,0-2-6.12c-1-1.61-2.17-2.63-3.65-2.32-2.41.59-2.67,3.27-1.9,7,.45,2.17,1.87,4.23,3.75,6.38s4.23,4.29,6.61,6.61a99.83,99.83,0,0,1,8,8.49,22.26,22.26,0,0,1,4.83,9.42c.88,4.25,1,8.39-.38,11.76s-4.21,5.93-9.32,7c-6,1.24-9.84-.32-12.46-3.4s-4-7.6-5-12.38l9-2.76a24.42,24.42,0,0,0,2.3,7.22c1,2,2.36,3.13,4.36,2.72,2.77-.57,3.2-3.74,2.36-7.82-.42-2.09-2-4.3-3.87-6.54-1-1-2.08-2.19-3.22-3.32-2.36-2.23-5-4.77-7.71-7.55a37.36,37.36,0,0,1-6.63-9,17.43,17.43,0,0,1-1.84-5,18.32,18.32,0,0,1,.7-10.65,11.64,11.64,0,0,1,8.46-6.82c5.62-1.25,9.4.42,11.92,3.43a25.4,25.4,0,0,1,4.67,10.81Z" transform="translate(0 -48.91)"/><path class="cls-3" d="M664,863l2.77,8.51a17.85,17.85,0,0,1,.67,7.24,12.27,12.27,0,0,1-2.14,5.74,11.37,11.37,0,0,1-6.31,4.39,11.67,11.67,0,0,1-7.76.19,12,12,0,0,1-5-3.4,18,18,0,0,1-3.71-6.25l-11.87-36.52a17.82,17.82,0,0,1-.65-7.16,11.23,11.23,0,0,1,8.42-10.2,11.86,11.86,0,0,1,7.68-.17,12.41,12.41,0,0,1,5.13,3.46,17.66,17.66,0,0,1,3.68,6.17l2.77,8.51-8.5,2.78-2.77-8.52a5.6,5.6,0,0,0-2.61-3.44,3.22,3.22,0,0,0-4.37,3.19,9.77,9.77,0,0,0,.32,2.42l11.87,36.51a6.12,6.12,0,0,0,2.7,3.42,2.52,2.52,0,0,0,2,.09,3.09,3.09,0,0,0,2.38-3.29,6.19,6.19,0,0,0-.4-2.38l-2.77-8.52Z" transform="translate(0 -48.91)"/><path class="cls-3" d="M681.32,840.57a6.61,6.61,0,0,0,3.52-3.17c.77-1.72.83-4.38-1.08-8.57s-4-6-5.8-6.52a6.54,6.54,0,0,0-4.66.67Zm21.93,29.95-15.91-22.95L685,848.64l11.4,25-8.7,4-27-59.3,8.7-4c10.4-4.75,17.52-.89,22.63,10.33,2.69,5.89,3.58,11.91,1.31,15.68L712,866.54Z" transform="translate(0 -48.91)"/><path class="cls-3" d="M716.34,813.55l-1.1-1.3-.45.27.65,1.58,8.31,19,5.6-3.41Zm8.94,46-25.37-60.84,10-6.07,42.19,50.62-8,4.83-8.41-10.45-7.88,4.78,5.38,12.29Z" transform="translate(0 -48.91)"/><polygon class="cls-3" points="729.21 742.95 723.21 735.15 745.09 718.26 751.1 726.05 743.94 731.58 777.7 775.4 770.13 781.25 736.37 737.43 729.21 742.95"/><path class="cls-3" d="M799.26,775l6.2,6.46a17.83,17.83,0,0,1,3.76,6.23,12.2,12.2,0,0,1,.56,6.09,11.34,11.34,0,0,1-3.77,6.7,11.61,11.61,0,0,1-6.9,3.56,12,12,0,0,1-6-.87,17.89,17.89,0,0,1-6.06-4l-26.56-27.7a17.8,17.8,0,0,1-3.7-6.16,11.25,11.25,0,0,1,3.15-12.86,11.92,11.92,0,0,1,6.84-3.5,12.47,12.47,0,0,1,6.12.88,17.9,17.9,0,0,1,6,4l6.19,6.46-6.45,6.21-6.2-6.47a5.6,5.6,0,0,0-3.84-2,3.23,3.23,0,0,0-2.54,4.78,9.71,9.71,0,0,0,1.33,2L794,792.51a6.11,6.11,0,0,0,3.91,1.9,2.57,2.57,0,0,0,1.83-.78,3.09,3.09,0,0,0,.71-4,6.28,6.28,0,0,0-1.4-2l-6.2-6.46Z" transform="translate(0 -48.91)"/><polygon class="cls-3" points="815.99 697.74 811.26 703.48 833.12 721.54 827.03 728.93 776.81 687.45 782.9 680.06 803.67 697.22 808.41 691.47 787.63 674.31 793.72 666.92 843.95 708.41 837.86 715.8 815.99 697.74"/></g></g></g></svg>