<svg xmlns="http://www.w3.org/2000/svg" xmlns:xlink="http://www.w3.org/1999/xlink" viewBox="0 0 500 200"><defs><style>.cls-1{fill:none;}.cls-2,.cls-5{fill:#e20e17;}.cls-3,.cls-4{fill:#fff;}.cls-4,.cls-5{fill-rule:evenodd;}.cls-6{opacity:0.6;}.cls-7{clip-path:url(#clip-path);}.cls-8{clip-path:url(#clip-path-2);}.cls-9{clip-path:url(#clip-path-3);}.cls-10{clip-path:url(#clip-path-4);}.cls-11{opacity:0.4;}.cls-12{clip-path:url(#clip-path-5);}.cls-13{clip-path:url(#clip-path-6);}.cls-14{clip-path:url(#clip-path-7);}</style><clipPath id="clip-path"><rect class="cls-1" x="101.41" y="49.09" width="11.58" height="11.58"/></clipPath><clipPath id="clip-path-2"><rect class="cls-1" x="141.62" y="34.21" width="9.32" height="9.32"/></clipPath><clipPath id="clip-path-3"><rect class="cls-1" x="120.94" y="37.33" width="9.32" height="9.32"/></clipPath><clipPath id="clip-path-4"><rect class="cls-1" x="94.07" y="71.34" width="9.32" height="9.32"/></clipPath><clipPath id="clip-path-5"><rect class="cls-1" x="89.57" y="42.99" width="7.32" height="7.32"/></clipPath><clipPath id="clip-path-6"><rect class="cls-1" x="117.28" y="24.07" width="7.32" height="7.32"/></clipPath><clipPath id="clip-path-7"><rect class="cls-1" x="100.61" y="18.93" width="7.32" height="7.32"/></clipPath></defs><g id="Capa_2" data-name="Capa 2"><g id="Capa_1-2" data-name="Capa 1"><rect class="cls-2" width="500" height="200"/><path class="cls-3" d="M196,84.15c-3.64-9.14-9.19-16.79-17.37-22.47a40.22,40.22,0,0,0-12.84-6.25c-2.79-.73-6.16-.68-6.93-4.88-.65-3.51-8.39-2.33-8.11,2.45.38,6.48-.81,10.37-4.6,12.8,0,0-4.86,3.44-10.19,1.86A11.53,11.53,0,0,1,129.21,62c-3.25-5.6-10.63-5.43-13.43-.38-1.06,2.14-2.58,8.19,6.39,11.55,8.45,5.55,5.45,11.21,5.44,13.07-1.74,3.67-4.28,6.48-8.36,7.57-1.54,0-3.08.44-4.62,0l-1-.18c-1.15-.62-2.26-1.32-3.45-1.85C107.51,90.66,105,91.58,104,94a4.42,4.42,0,0,0,2.73,6.16,2.86,2.86,0,0,1,2.25,3.2c0,11,9.68,25.28,9.92,25.55,2.28,2.5,4.6,5,6.87,7.45,4.28,4.72,6.24,10.49,7.42,16.59,1,5.18,2.39,10.19,6.51,13.93a2,2,0,0,1,1.64,1.47c.28,2.41,2.07,2.78,3.84,2.81,5.72.1,11.44.05,17.15,0a3.23,3.23,0,0,0,3.43-2.55,2.18,2.18,0,0,1,1.76-1.6c1.91-1.89,5.68-8.86,5.58-10.24,1.66-4.94,4.11-15.19,5.59-16.68,2.49-2.77,5.17-5.39,7.48-8.32C205,107.92,196.65,85.7,196,84.15M118.26,68.92h0M178.58,140h0l0,.05Z"/><path class="cls-3" d="M138.62,65.51A8.79,8.79,0,0,0,148,57.17c0-4.76-3.62-9.1-8.5-8.92-5-.41-8.88,4-8.86,8.54a8.47,8.47,0,0,0,8,8.72"/><path class="cls-3" d="M108.53,83.09a8.06,8.06,0,0,0,7.85,8c4.19.21,9-3.42,8.44-8,0-4.69-3.27-8.23-7.73-8.28a8.19,8.19,0,0,0-8.56,8.29"/><path class="cls-4" d="M165,175.87H142.42a.83.83,0,0,1-.83-.83v-.82a.83.83,0,0,1,.83-.83H165a.83.83,0,0,1,.82.83V175a.83.83,0,0,1-.82.83"/><path class="cls-4" d="M162.28,179.66H145.11a.86.86,0,0,1-.86-.86v-.87a.86.86,0,0,1,.86-.87h17.17a.87.87,0,0,1,.87.87v.87a.87.87,0,0,1-.87.86"/><path class="cls-4" d="M160.59,183.17H146.81a.87.87,0,0,1-.87-.87v-.87a.86.86,0,0,1,.87-.86h13.78a.86.86,0,0,1,.86.86v.87a.87.87,0,0,1-.86.87"/><path class="cls-5" d="M167.76,84a5.52,5.52,0,1,1-5.52-5.51A5.52,5.52,0,0,1,167.76,84"/><path class="cls-5" d="M157,92h10.58v40.84c0,8.07-8.15,10-11.49,10a23.44,23.44,0,0,1-6.89-1.3V131.31c2.4,1.73,7.95,2.88,7.95-2.7Z"/><rect class="cls-2" x="137.67" y="107.44" width="10.49" height="21.59"/><path class="cls-5" d="M148.3,100a5.39,5.39,0,1,1-5.39-5.39A5.39,5.39,0,0,1,148.3,100"/><g class="cls-6"><g class="cls-7"><path class="cls-4" d="M113,54.88a5.79,5.79,0,1,1-5.79-5.79A5.79,5.79,0,0,1,113,54.88"/></g></g><g class="cls-6"><g class="cls-8"><path class="cls-4" d="M150.94,38.87a4.66,4.66,0,1,1-4.66-4.66,4.66,4.66,0,0,1,4.66,4.66"/></g></g><g class="cls-6"><g class="cls-9"><path class="cls-4" d="M130.27,42a4.67,4.67,0,1,1-4.67-4.66A4.66,4.66,0,0,1,130.27,42"/></g></g><g class="cls-6"><g class="cls-10"><path class="cls-4" d="M103.4,76a4.67,4.67,0,1,1-4.67-4.66A4.67,4.67,0,0,1,103.4,76"/></g></g><path class="cls-4" d="M88.69,60.19A3.66,3.66,0,1,1,85,56.53a3.66,3.66,0,0,1,3.66,3.66"/><g class="cls-11"><g class="cls-12"><path class="cls-4" d="M96.9,46.65A3.67,3.67,0,1,1,93.24,43a3.66,3.66,0,0,1,3.66,3.66"/></g></g><g class="cls-11"><g class="cls-13"><path class="cls-4" d="M124.6,27.74a3.66,3.66,0,1,1-3.66-3.67,3.66,3.66,0,0,1,3.66,3.67"/></g></g><g class="cls-11"><g class="cls-14"><path class="cls-4" d="M107.94,22.59a3.67,3.67,0,1,1-3.67-3.66,3.66,3.66,0,0,1,3.67,3.66"/></g></g><path class="cls-4" d="M137.61,20.82a3,3,0,1,1-3-3,3,3,0,0,1,3,3"/><path class="cls-4" d="M105.12,35a2.28,2.28,0,1,1-2.28-2.28A2.28,2.28,0,0,1,105.12,35"/><path class="cls-4" d="M112.71,10.57a2.28,2.28,0,1,1-2.27-2.28,2.27,2.27,0,0,1,2.27,2.28"/><path class="cls-4" d="M87.05,34.78a2.84,2.84,0,1,1-2.84-2.84,2.84,2.84,0,0,1,2.84,2.84"/><path class="cls-4" d="M105,34.87a2.18,2.18,0,1,1-2.18-2.18A2.18,2.18,0,0,1,105,34.87"/><path class="cls-4" d="M149.8,24.08a2.18,2.18,0,1,1-2.18-2.18,2.17,2.17,0,0,1,2.18,2.18"/><path class="cls-4" d="M112.52,10.35a2.18,2.18,0,1,1-2.18-2.18,2.17,2.17,0,0,1,2.18,2.18"/><path class="cls-3" d="M217.88,122.91c0,3.08-2.23,4.94-5.92,4.94h-3.5v4.3h-2V118H212c3.69,0,5.92,1.86,5.92,4.94m-2,0c0-2-1.36-3.18-3.95-3.18h-3.44v6.36h3.44c2.59,0,3.95-1.16,3.95-3.18"/><path class="cls-3" d="M230.34,132.15l-3.06-4.36c-.29,0-.59,0-.89,0h-3.51v4.32h-2V118h5.54c3.68,0,5.91,1.86,5.91,4.94a4.47,4.47,0,0,1-3.12,4.48l3.36,4.76Zm-.07-9.24c0-2-1.35-3.18-3.94-3.18h-3.45v6.38h3.45c2.59,0,3.94-1.18,3.94-3.2"/><path class="cls-3" d="M234.43,125.06a7.54,7.54,0,1,1,7.56,7.25,7.21,7.21,0,0,1-7.56-7.25m13,0A5.51,5.51,0,1,0,242,130.5a5.32,5.32,0,0,0,5.49-5.44"/><polygon class="cls-3" points="257.43 127.24 257.43 132.15 255.42 132.15 255.42 127.2 249.79 117.97 251.96 117.97 256.5 125.44 261.05 117.97 263.06 117.97 257.43 127.24"/><polygon class="cls-3" points="275.15 130.38 275.15 132.15 264.86 132.15 264.86 117.97 274.87 117.97 274.87 119.73 266.89 119.73 266.89 124.08 274 124.08 274 125.81 266.89 125.81 266.89 130.38 275.15 130.38"/><path class="cls-3" d="M277.22,125.06a7.18,7.18,0,0,1,7.52-7.26,7,7,0,0,1,5.39,2.21l-1.32,1.28a5.23,5.23,0,0,0-4-1.68,5.45,5.45,0,1,0,0,10.89,5.24,5.24,0,0,0,4-1.7l1.32,1.28a7,7,0,0,1-5.41,2.23,7.17,7.17,0,0,1-7.5-7.25"/><polygon class="cls-3" points="295.68 119.73 290.82 119.73 290.82 117.97 302.55 117.97 302.55 119.73 297.68 119.73 297.68 132.15 295.68 132.15 295.68 119.73"/><path class="cls-3" d="M303.4,125.06a7.54,7.54,0,1,1,7.56,7.25,7.21,7.21,0,0,1-7.56-7.25m13,0A5.51,5.51,0,1,0,311,130.5a5.32,5.32,0,0,0,5.48-5.44"/><path class="cls-3" d="M320.28,130.53,321,129a7.33,7.33,0,0,0,4.68,1.64c2.46,0,3.51-1,3.51-2.19,0-3.46-8.59-1.28-8.59-6.54,0-2.19,1.7-4.06,5.43-4.06a8.37,8.37,0,0,1,4.56,1.26l-.67,1.62a7.34,7.34,0,0,0-3.89-1.15c-2.41,0-3.44,1-3.44,2.24,0,3.47,8.58,1.3,8.58,6.51,0,2.16-1.74,4-5.49,4a8.42,8.42,0,0,1-5.42-1.78"/><path class="cls-3" d="M205.12,145c0-4.37,3.41-7.61,8.06-7.61s8.06,3.22,8.06,7.61-3.43,7.62-8.06,7.62-8.06-3.24-8.06-7.62m12.67,0a4.61,4.61,0,1,0-4.61,4.72,4.5,4.5,0,0,0,4.61-4.72"/><path class="cls-3" d="M233.19,152.41l-2.84-4.11h-3.13v4.11h-3.41V137.68h6.38c3.93,0,6.39,2,6.39,5.34a4.78,4.78,0,0,1-3,4.65l3.3,4.74ZM230,140.46h-2.78v5.13H230c2.08,0,3.13-1,3.13-2.57s-1-2.56-3.13-2.56"/><path class="cls-3" d="M249.23,144.81h3.11v6a10.16,10.16,0,0,1-6,1.87c-4.63,0-8-3.18-8-7.62s3.41-7.61,8.1-7.61a7.84,7.84,0,0,1,6.16,2.54l-2.18,2a5,5,0,0,0-3.81-1.66,4.72,4.72,0,1,0,0,9.43,5.35,5.35,0,0,0,2.65-.64Z"/><path class="cls-3" d="M265.2,149.25h-6.84l-1.3,3.16h-3.49l6.56-14.73h3.36l6.59,14.73H266.5Zm-1.07-2.59L261.79,141l-2.33,5.63Z"/><polygon class="cls-3" points="285.13 137.68 285.13 152.41 282.33 152.41 274.99 143.47 274.99 152.41 271.62 152.41 271.62 137.68 274.44 137.68 281.76 146.62 281.76 137.68 285.13 137.68"/><rect class="cls-3" x="288.63" y="137.68" width="3.41" height="14.73"/><polygon class="cls-3" points="307.45 149.63 307.45 152.41 294.58 152.41 294.58 150.2 302.66 140.46 294.75 140.46 294.75 137.68 307.14 137.68 307.14 139.89 299.08 149.63 307.45 149.63"/><path class="cls-3" d="M319.34,149.25h-6.83l-1.31,3.16h-3.49l6.56-14.73h3.37l6.58,14.73h-3.57Zm-1.07-2.59L315.94,141l-2.34,5.63Z"/><path class="cls-3" d="M324.63,145c0-4.44,3.41-7.61,8-7.61a7.58,7.58,0,0,1,6.06,2.61l-2.19,2a4.72,4.72,0,0,0-3.7-1.73,4.72,4.72,0,0,0,0,9.43,4.67,4.67,0,0,0,3.7-1.75l2.19,2a7.58,7.58,0,0,1-6.08,2.63c-4.56,0-8-3.18-8-7.62"/><rect class="cls-3" x="340.98" y="137.68" width="3.41" height="14.73"/><path class="cls-3" d="M347,145c0-4.37,3.41-7.61,8.06-7.61s8.05,3.22,8.05,7.61-3.43,7.62-8.05,7.62S347,149.42,347,145m12.66,0a4.61,4.61,0,1,0-4.6,4.72,4.49,4.49,0,0,0,4.6-4.72"/><polygon class="cls-3" points="379.15 137.68 379.15 152.41 376.35 152.41 369.01 143.47 369.01 152.41 365.64 152.41 365.64 137.68 368.46 137.68 375.78 146.62 375.78 137.68 379.15 137.68"/><path class="cls-3" d="M392.35,149.25h-6.84l-1.3,3.16h-3.5l6.57-14.73h3.36l6.59,14.73h-3.58Zm-1.08-2.59L388.94,141l-2.34,5.63Z"/><polygon class="cls-3" points="398.77 137.68 402.18 137.68 402.18 149.63 409.56 149.63 409.56 152.41 398.77 152.41 398.77 137.68"/><polygon class="cls-3" points="422.88 149.67 422.88 152.41 411.48 152.41 411.48 137.68 422.61 137.68 422.61 140.42 414.86 140.42 414.86 143.61 421.7 143.61 421.7 146.26 414.86 146.26 414.86 149.67 422.88 149.67"/><path class="cls-3" d="M424.44,151l1.16-2.56a8.68,8.68,0,0,0,4.86,1.53c2,0,2.84-.67,2.84-1.57,0-2.76-8.57-.87-8.57-6.34,0-2.5,2-4.58,6.21-4.58a9.88,9.88,0,0,1,5.11,1.3L435,141.32a8.32,8.32,0,0,0-4.08-1.16c-2,0-2.8.76-2.8,1.69,0,2.71,8.56.84,8.56,6.24,0,2.47-2,4.57-6.24,4.57a10.51,10.51,0,0,1-6-1.71"/><path class="cls-3" d="M213.74,164.8l.13.37a9,9,0,0,1,2.48.65c.42.18,1.44,1.28-.13.76a7.75,7.75,0,0,0-2.32-.37,18.32,18.32,0,0,1-1.44,5.63,29.55,29.55,0,0,0-2.49,7.5c-.29,3,2.49,1.65,4.76-.07a22,22,0,0,0,5.5-6.33,63.52,63.52,0,0,1,4.31-6.6c.84-1,2.85-2.51,4.29-1.72.24.13.08.28,0,.28l-.29,0c-1.51,0-4.31,4.47-7.74,8.89a37.15,37.15,0,0,1-5.7,6.07,7.57,7.57,0,0,1-4.61,1.94c-2.58,0-2.61-1.83-2-3.8s1.76-4.34,2.65-6.48a34.14,34.14,0,0,0,1.93-5.29c-3.11,0-6.93.92-6.8,3.17.05,1,1.15,1.31,1.57,1.57s.18.34-.08.26c-.6-.13-2-1-2-2.2a1.4,1.4,0,0,1-.1-.31c-.16-2.91,4.1-3.82,7.5-3.61a.64.64,0,0,0-.13-.32c-.21-.36.34-.6.71,0"/><path class="cls-3" d="M225.4,179.84c-.83.63-2.77,1.26-3.29-.31-.21-.6.23-2,.78-3.22-.23.29-.47.68-1,1.31-.26.29-.52-.05-.28-.37.91-1.12,1.62-2.09,2-2.69a.41.41,0,0,1,.05-.34c.29-.81.55-1.47.92-1.55s.78.06.91.32-.13.81-.52,1.62a15,15,0,0,0-1.57,3.79c-.18,1.13.34,1.73,1.2,1.28a15.85,15.85,0,0,0,3.9-3.63.19.19,0,0,1,.32.21,14.4,14.4,0,0,1-3.41,3.58m3.61-11.4a22,22,0,0,1-4.18,2c-.34,0-.21-.18-.11-.28s1.16-.79,1.44-1a12.07,12.07,0,0,0,2-1.68c.29-.13.63.08.76.11a.6.6,0,0,1,.16.86Z"/><path class="cls-3" d="M231.21,180.52c-2.51.45-4.39-.86-3.22-3.58.79-1.78,4.84-5.21,6.8-4.55a.89.89,0,0,1,.69,1.17c0,.16-.48,1.13-.66.89a.27.27,0,0,1-.1-.28c0-.19.13-.37.13-.53s-.13-.52-.4-.52c-1.33,0-4.57,2.67-5.28,5-.6,1.93.92,2.09,2.41,1.67a9.3,9.3,0,0,0,5.12-3.79c.14-.16.27-.05.32-.05s0,.28,0,.39c-1.49,2-3.22,3.69-5.81,4.13"/><path class="cls-3" d="M242.8,172.86a23.15,23.15,0,0,1-3,.44c-.34.63-.65,1.07-.73,1.31a15,15,0,0,0-1.57,3.79c-.18,1.13.34,1.73,1.2,1.28a15.85,15.85,0,0,0,3.9-3.63.19.19,0,0,1,.32.21,14.4,14.4,0,0,1-3.41,3.58c-.83.63-2.77,1.26-3.29-.31-.21-.6.23-2,.78-3.22-.23.29-.47.68-1,1.31-.26.29-.52-.05-.28-.37.91-1.12,1.62-2.09,2-2.69,0-.05.24-.47.58-1.1a3.16,3.16,0,0,1-.61,0,.38.38,0,0,1-.36-.57c.21-.45.89-.45,1.38-.47,0-.06.06-.06.11-.06l1.31-2.43c.65-1.12.7-1.39,1.07-1.44s.89,0,1,.26-.07.84-.23,1.08-.39.23-.55.54l-1.25,2.2.34,0a17.69,17.69,0,0,1,2.45-.19c.32,0,.87.19-.23.45"/><path class="cls-3" d="M247.06,177.88c-.15-.55.21-1,.66-.84.7-1.41.49-2,.36-2.27-.29-.74.86-1,1.07-.29.37,1.07-.55,2.69-1.12,3.5,0,.5.31.71.65.71.84,0,1.7-1,2.23-1.52.31-.36.65-.76.91-1.12a.19.19,0,0,1,.32.21,8.19,8.19,0,0,1-.89,1.2c-.58.71-1.62,1.83-2.65,1.83a1.21,1.21,0,0,1-1.07-.65q-.51.54-1,1a3,3,0,0,1-3.45.52c-.86-.52-1.18-1.75-.71-3.37a7.82,7.82,0,0,1,2.31-3.43,3.23,3.23,0,0,1,2.93-1,1.08,1.08,0,0,1,.75,1.25c-.05.42-.44.39-.44.18s0-.7-.5-.7c-1.15,0-3.66,2.67-4.08,5-.18,1,.13,1.91,1.1,1.91a4.14,4.14,0,0,0,2.72-2c0-.06-.08-.08-.08-.16"/><path class="cls-3" d="M251.33,176.68a21.38,21.38,0,0,0,2.43-3.69c-.39-.05-.66-.32-.55-.63a4.65,4.65,0,0,1,2.12-2.22c.76-.34,1.31-.63.6.65l-1,1.62a22.72,22.72,0,0,0,2.75.05c1.57-.07.94.82,0,1.86a14.53,14.53,0,0,0-2.35,3.9c-.42,1.18,0,1.91.84,1.46a15.64,15.64,0,0,0,3.87-3.63.2.2,0,0,1,.34.21,14.52,14.52,0,0,1-3.4,3.58,3.67,3.67,0,0,1-2,.73,1.17,1.17,0,0,1-1.26-1c-.47-1.7,1.26-3.61,2.22-4.61.4-.44,1.6-1.59-.21-1.88a6,6,0,0,0-1.17-.13c-.94,1.33-1.83,2.69-2.88,4-.26.34-.71.21-.31-.28"/><path class="cls-3" d="M270.21,174.45c.71-1.31,1.36-2.46,1.65-3s.23-.91.18-1.07c.13-.86,2-3.11,3.38-3.11.26,0,1.3.26,1.51.89.08.42-.21.16-.34.16-1.54,0-3.69,3.19-5.36,6.14,3.51-.15,8.19-1.46,10.44-3.79,1.54-1.6,1.18-3.61-1.47-4.39-4.24-1.18-13.55.1-14.25,4.36-.21,1.26,1.17,1.6,1.7,1.91.31.24.15.45-.19.37-.81-.13-2.51-1.15-2.17-2.75a4,4,0,0,1-.05-.42c.31-1.64,2.41-3,3.85-3.74a16.77,16.77,0,0,1,11-.65c2.05.71,3.22,2.2,3.09,3.71-.23,2.88-3.9,4.53-7.25,5.29a27.25,27.25,0,0,1-5,.55c-.84,1.51-1.5,2.93-1.84,3.71-.6,1.49.27,1.39.87.68.39-.47.76-.91,1-.89s-.32.66-.34.68c-.4.58-1.13,1.83-1.84,1.83-.13,0-1-.13-1-.31-.13-1,1.05-3.5,2.23-5.73a3.47,3.47,0,0,1-.47,0c-.29,0-.61-.5.1-.42a4.87,4.87,0,0,0,.55,0"/><path class="cls-3" d="M279.18,179.32c-1.93-2.46,4-6.38,6-6.86a3.53,3.53,0,0,1,2.62.21,1,1,0,0,1,.44.71c0,.18,0,.18-.15.13a1.44,1.44,0,0,0-1.31-.5c-1.36,0-3.19,1.05-4.55,2.25-.74.68-2.91,3.17-2.1,4.32.37.52,1.65-.42,2-.71.68-.57,1.85-1.57,2.54-2.3a23.33,23.33,0,0,1,2.59-2.59c.26,0,1.28.21,1,.63a9.66,9.66,0,0,0-1.57,3.79c-.16,1.13.37,1.73,1.21,1.28a15,15,0,0,0,3.89-3.63.19.19,0,0,1,.32.21,14,14,0,0,1-3.4,3.58c-.84.63-2.78,1.26-3.3-.31a6.36,6.36,0,0,1,.42-3.19c-.45.2-2.93,3.87-5,3.87a2.35,2.35,0,0,1-1.68-.89"/><path class="cls-3" d="M292.44,177.78c-.15,1.28.21,2.69,1.73,1.83a15.29,15.29,0,0,0,3.85-3.56c.13-.18.44,0,.28.26a15.82,15.82,0,0,1-3.47,3.61,2.85,2.85,0,0,1-1.63.58c-1.57,0-2-.89-2-2.1.16-2.61,3.33-8.86,5-11.11,1-1.29,2.17-2.86,3.95-2.86,1.17,0,2,.92,1.1,2.62a36.16,36.16,0,0,1-8.51,9.52,6.91,6.91,0,0,0-.34,1.21m.74-2.25c2.56-1.76,6-6.28,7.4-8.95.71-1.28.1-1.88-1.05-1a16.73,16.73,0,0,0-4,5.13c-.29.52-1,1.85-1.57,3a19,19,0,0,0-.73,1.81"/><path class="cls-3" d="M297.28,179.32c-1.93-2.46,4-6.38,6-6.86a3.53,3.53,0,0,1,2.62.21,1,1,0,0,1,.44.71c0,.18,0,.18-.15.13a1.44,1.44,0,0,0-1.31-.5c-1.36,0-3.19,1.05-4.55,2.25-.74.68-2.91,3.17-2.1,4.32.37.52,1.65-.42,2-.71a33,33,0,0,0,2.54-2.3,23.33,23.33,0,0,1,2.59-2.59c.26,0,1.28.21,1,.63a9.66,9.66,0,0,0-1.57,3.79c-.15,1.13.37,1.73,1.21,1.28a15,15,0,0,0,3.89-3.63.19.19,0,0,1,.32.21,14,14,0,0,1-3.4,3.58c-.84.63-2.78,1.26-3.3-.31a6.48,6.48,0,0,1,.42-3.19c-.44.2-2.93,3.87-5,3.87a2.37,2.37,0,0,1-1.68-.89"/><path class="cls-3" d="M312.66,180.52c-2.51.45-4.39-.86-3.22-3.58.79-1.78,4.84-5.21,6.81-4.55a.89.89,0,0,1,.68,1.17c0,.16-.47,1.13-.66.89a.27.27,0,0,1-.1-.28c0-.19.13-.37.13-.53s-.13-.52-.39-.52c-1.34,0-4.58,2.67-5.29,5-.6,1.93.92,2.09,2.41,1.67a9.32,9.32,0,0,0,5.13-3.79c.13-.16.26-.05.31-.05s0,.28,0,.39c-1.49,2-3.22,3.69-5.81,4.13"/><path class="cls-3" d="M319.25,174.22c.29-.81.55-1.47.92-1.55s.78.06.92.32-.14.81-.53,1.62A15,15,0,0,0,319,178.4c-.18,1.13.34,1.73,1.21,1.28a16,16,0,0,0,3.89-3.63.19.19,0,0,1,.32.21,14.52,14.52,0,0,1-3.4,3.58c-.84.63-2.78,1.26-3.3-.31-.21-.6.24-2,.79-3.22-.24.29-.48.68-1,1.31-.26.29-.52-.05-.28-.37.91-1.12,1.62-2.09,2-2.69a.5.5,0,0,1,.05-.34m2.1-2.91c-.47,0-1.13,0-1.13-.55a13.56,13.56,0,0,1,1.57-1.3c1.07-.87.42,0,.42.57,0,.29-.6,1.28-.86,1.28"/><path class="cls-3" d="M328.51,177.88c-.15-.55.21-1,.66-.84.7-1.41.49-2,.36-2.27-.28-.74.87-1,1.08-.29.36,1.07-.55,2.69-1.13,3.5,0,.5.32.71.66.71.83,0,1.7-1,2.22-1.52.31-.36.65-.76.92-1.12a.19.19,0,0,1,.31.21,8.19,8.19,0,0,1-.89,1.2c-.58.71-1.62,1.83-2.64,1.83a1.19,1.19,0,0,1-1.07-.65q-.51.54-1,1a3,3,0,0,1-3.46.52c-.86-.52-1.18-1.75-.7-3.37a7.78,7.78,0,0,1,2.3-3.43,3.24,3.24,0,0,1,2.93-1,1.09,1.09,0,0,1,.76,1.25c-.06.42-.45.39-.45.18s0-.7-.5-.7c-1.15,0-3.66,2.67-4.08,5-.18,1,.13,1.91,1.1,1.91a4.14,4.14,0,0,0,2.72-2c0-.06-.08-.08-.08-.16"/><path class="cls-3" d="M333.2,180.18c-.4.53-.16,1,.81.79,1.3-.4,3.24-1.89,3.24-3.4,0-.74-1.46-1.29-2-1.63a2.22,2.22,0,0,1-.89-.94c-.29.5-.71,1.13-1.18,1.81-.23.29-.55.05-.36-.24a10.76,10.76,0,0,0,1.41-2.46c.26-2,3.69-3.74,5.57-3.74,1.18,0,2.22.55,1.62,1.78a2,2,0,0,1-.81.89c-.13.11-.47,0-.13-.39s.76-1.34,0-1.41a7.27,7.27,0,0,0-2.85.83,5.58,5.58,0,0,0-2.25,1.89c-.55.75-.45,1.28.28,1.72,1.78,1,4,1.68,2.07,3.85a7.24,7.24,0,0,1-3.66,1.91c-.5.1-1.6.26-1.89-.29-.18-.26.06-.71.34-1.05a4.46,4.46,0,0,1,1.26-.76c.18-.05.24.19,0,.27a1.83,1.83,0,0,0-.7.57"/><rect class="cls-1" width="500" height="200"/><rect class="cls-1" width="500" height="200"/><rect class="cls-1" width="500" height="200"/></g></g></svg>