<svg xmlns="http://www.w3.org/2000/svg" xmlns:xlink="http://www.w3.org/1999/xlink" viewBox="0 0 500 200"><defs><style>.cls-1{fill:none;}.cls-2,.cls-8{fill:#06a099;}.cls-18,.cls-3{fill:#9d9b9b;}.cls-12,.cls-17,.cls-3,.cls-4,.cls-8{fill-rule:evenodd;}.cls-4,.cls-5{fill:#fff;}.cls-6{opacity:0.6;}.cls-7{clip-path:url(#clip-path);}.cls-9{clip-path:url(#clip-path-2);}.cls-10{clip-path:url(#clip-path-3);}.cls-11{clip-path:url(#clip-path-4);}.cls-12,.cls-19{fill:#e20e17;}.cls-13{opacity:0.4;}.cls-14{clip-path:url(#clip-path-5);}.cls-15{clip-path:url(#clip-path-6);}.cls-16{clip-path:url(#clip-path-7);}.cls-17{fill:#f39528;}.cls-20{fill:#010101;}</style><clipPath id="clip-path"><rect class="cls-1" x="92.38" y="50.43" width="11.58" height="11.58"/></clipPath><clipPath id="clip-path-2"><rect class="cls-1" x="132.6" y="35.54" width="9.32" height="9.32"/></clipPath><clipPath id="clip-path-3"><rect class="cls-1" x="111.92" y="38.66" width="9.32" height="9.32"/></clipPath><clipPath id="clip-path-4"><rect class="cls-1" x="85.05" y="72.67" width="9.32" height="9.32"/></clipPath><clipPath id="clip-path-5"><rect class="cls-1" x="80.55" y="44.33" width="7.32" height="7.32"/></clipPath><clipPath id="clip-path-6"><rect class="cls-1" x="108.26" y="25.41" width="7.32" height="7.32"/></clipPath><clipPath id="clip-path-7"><rect class="cls-1" x="91.59" y="20.26" width="7.32" height="7.32"/></clipPath></defs><g id="Capa_2" data-name="Capa 2"><g id="Capa_1-2" data-name="Capa 1"><path class="cls-2" d="M187,85.48c-3.63-9.14-9.18-16.79-17.36-22.46a40.24,40.24,0,0,0-12.84-6.26c-2.79-.73-6.16-.68-6.94-4.88-.64-3.51-8.38-2.33-8.11,2.45.38,6.49-.81,10.37-4.6,12.81,0,0-4.85,3.43-10.18,1.86a11.52,11.52,0,0,1-6.79-5.66c-3.26-5.6-10.64-5.43-13.44-.38-1,2.14-2.58,8.19,6.39,11.56,8.46,5.55,5.46,11.2,5.45,13.06-1.75,3.68-4.28,6.48-8.36,7.57-1.55,0-3.08.44-4.63,0l-1-.18c-1.14-.62-2.26-1.32-3.44-1.85C98.49,92,96,92.92,95,95.37a4.42,4.42,0,0,0,2.73,6.16,2.85,2.85,0,0,1,2.25,3.2c0,11,9.68,25.29,9.93,25.56,2.28,2.49,4.6,5,6.87,7.45,4.28,4.71,6.23,10.48,7.42,16.58,1,5.19,2.39,10.2,6.51,13.93a2,2,0,0,1,1.64,1.47c.27,2.41,2.07,2.79,3.83,2.82,5.72.09,11.44,0,17.16,0a3.24,3.24,0,0,0,3.43-2.55,2.18,2.18,0,0,1,1.76-1.6c1.91-1.89,5.68-8.86,5.57-10.23,1.67-5,4.12-15.2,5.59-16.69,2.5-2.77,5.18-5.39,7.49-8.32C196,109.26,187.63,87,187,85.48M109.24,70.26h0m60.31,71.06h0l0,0Z"/><path class="cls-2" d="M129.6,66.84A8.78,8.78,0,0,0,139,58.5c0-4.76-3.62-9.1-8.5-8.92-5-.41-8.87,4-8.85,8.54a8.46,8.46,0,0,0,8,8.72"/><path class="cls-2" d="M99.5,84.42a8.06,8.06,0,0,0,7.85,8c4.2.21,9-3.42,8.45-8,0-4.7-3.27-8.23-7.73-8.29a8.21,8.21,0,0,0-8.57,8.29"/><path class="cls-3" d="M156,177.2H133.39a.83.83,0,0,1-.82-.83v-.82a.82.82,0,0,1,.82-.82H156a.82.82,0,0,1,.82.82v.82a.83.83,0,0,1-.82.83"/><path class="cls-3" d="M153.26,181H136.09a.86.86,0,0,1-.87-.86v-.87a.87.87,0,0,1,.87-.87h17.17a.86.86,0,0,1,.86.87v.87a.85.85,0,0,1-.86.86"/><path class="cls-3" d="M151.56,184.5H137.79a.87.87,0,0,1-.87-.87v-.87a.87.87,0,0,1,.87-.86h13.77a.87.87,0,0,1,.87.86v.87a.87.87,0,0,1-.87.87"/><path class="cls-4" d="M158.73,85.38a5.52,5.52,0,1,1-5.51-5.52,5.51,5.51,0,0,1,5.51,5.52"/><path class="cls-4" d="M148,93.36H158.6V134.2c0,8.07-8.16,10-11.49,10a23.44,23.44,0,0,1-6.89-1.3V132.65c2.39,1.72,7.94,2.87,7.94-2.7Z"/><rect class="cls-5" x="128.64" y="108.77" width="10.49" height="21.59"/><path class="cls-4" d="M139.28,101.32a5.4,5.4,0,1,1-5.4-5.39,5.39,5.39,0,0,1,5.4,5.39"/><g class="cls-6"><g class="cls-7"><path class="cls-8" d="M104,56.21a5.79,5.79,0,1,1-5.79-5.78A5.79,5.79,0,0,1,104,56.21"/></g></g><g class="cls-6"><g class="cls-9"><path class="cls-8" d="M141.92,40.2a4.67,4.67,0,1,1-4.66-4.66,4.66,4.66,0,0,1,4.66,4.66"/></g></g><g class="cls-6"><g class="cls-10"><path class="cls-8" d="M121.24,43.33a4.66,4.66,0,1,1-4.66-4.67,4.66,4.66,0,0,1,4.66,4.67"/></g></g><g class="cls-6"><g class="cls-11"><path class="cls-8" d="M94.37,77.33a4.66,4.66,0,1,1-4.66-4.66,4.66,4.66,0,0,1,4.66,4.66"/></g></g><path class="cls-12" d="M79.66,61.53A3.66,3.66,0,1,1,76,57.87a3.66,3.66,0,0,1,3.66,3.66"/><g class="cls-13"><g class="cls-14"><path class="cls-8" d="M87.87,48a3.66,3.66,0,1,1-3.66-3.66A3.66,3.66,0,0,1,87.87,48"/></g></g><g class="cls-13"><g class="cls-15"><path class="cls-8" d="M115.58,29.07a3.66,3.66,0,1,1-3.66-3.66,3.66,3.66,0,0,1,3.66,3.66"/></g></g><g class="cls-13"><g class="cls-16"><path class="cls-8" d="M98.91,23.92a3.66,3.66,0,1,1-3.66-3.66,3.66,3.66,0,0,1,3.66,3.66"/></g></g><path class="cls-12" d="M128.58,22.15a3,3,0,1,1-3-3,3,3,0,0,1,3,3"/><path class="cls-17" d="M96.09,36.3A2.28,2.28,0,1,1,93.82,34a2.27,2.27,0,0,1,2.27,2.27"/><path class="cls-17" d="M103.68,11.9a2.27,2.27,0,1,1-2.27-2.27,2.27,2.27,0,0,1,2.27,2.27"/><path class="cls-12" d="M78,36.11a2.84,2.84,0,1,1-2.84-2.84A2.84,2.84,0,0,1,78,36.11"/><path class="cls-12" d="M96,36.2A2.18,2.18,0,1,1,93.82,34,2.18,2.18,0,0,1,96,36.2"/><path class="cls-12" d="M140.78,25.41a2.18,2.18,0,1,1-2.18-2.18,2.19,2.19,0,0,1,2.18,2.18"/><path class="cls-12" d="M103.5,11.68a2.18,2.18,0,1,1-2.18-2.18,2.19,2.19,0,0,1,2.18,2.18"/><path class="cls-18" d="M208.85,124.24c0,3.08-2.23,4.94-5.91,4.94h-3.51v4.3h-2V119.3h5.54c3.68,0,5.91,1.86,5.91,4.94m-2,0c0-2-1.35-3.18-3.94-3.18h-3.45v6.36h3.45c2.59,0,3.94-1.15,3.94-3.18"/><path class="cls-18" d="M221.31,133.48l-3.06-4.36c-.28,0-.59,0-.89,0h-3.5v4.32h-2V119.3h5.53c3.69,0,5.91,1.86,5.91,4.94a4.48,4.48,0,0,1-3.11,4.48l3.36,4.76Zm-.06-9.24c0-2-1.36-3.18-3.95-3.18h-3.44v6.38h3.44c2.59,0,3.95-1.17,3.95-3.2"/><path class="cls-18" d="M225.41,126.39a7.54,7.54,0,1,1,7.55,7.25,7.21,7.21,0,0,1-7.55-7.25m13,0a5.51,5.51,0,1,0-5.49,5.45,5.32,5.32,0,0,0,5.49-5.45"/><polygon class="cls-18" points="248.4 128.57 248.4 133.48 246.4 133.48 246.4 128.53 240.76 119.3 242.93 119.3 247.47 126.77 252.03 119.3 254.03 119.3 248.4 128.57"/><polygon class="cls-18" points="266.13 131.72 266.13 133.48 255.84 133.48 255.84 119.3 265.84 119.3 265.84 121.06 257.86 121.06 257.86 125.42 264.97 125.42 264.97 127.14 257.86 127.14 257.86 131.72 266.13 131.72"/><path class="cls-18" d="M268.2,126.39a7.17,7.17,0,0,1,7.51-7.25,7,7,0,0,1,5.39,2.2l-1.32,1.28a5.26,5.26,0,0,0-4-1.68,5.45,5.45,0,1,0,0,10.9,5.28,5.28,0,0,0,4-1.7l1.32,1.27a7,7,0,0,1-5.41,2.23,7.17,7.17,0,0,1-7.49-7.25"/><polygon class="cls-18" points="286.65 121.06 281.79 121.06 281.79 119.3 293.52 119.3 293.52 121.06 288.66 121.06 288.66 133.48 286.65 133.48 286.65 121.06"/><path class="cls-18" d="M294.37,126.39a7.55,7.55,0,1,1,7.56,7.25,7.21,7.21,0,0,1-7.56-7.25m13.05,0a5.51,5.51,0,1,0-5.49,5.45,5.32,5.32,0,0,0,5.49-5.45"/><path class="cls-18" d="M311.25,131.86l.75-1.58a7.31,7.31,0,0,0,4.68,1.64c2.45,0,3.5-.95,3.5-2.19,0-3.46-8.58-1.28-8.58-6.54,0-2.19,1.7-4,5.42-4a8.32,8.32,0,0,1,4.56,1.25l-.67,1.62a7.29,7.29,0,0,0-3.89-1.15c-2.41,0-3.44,1-3.44,2.25,0,3.46,8.59,1.29,8.59,6.5,0,2.17-1.74,4-5.49,4a8.44,8.44,0,0,1-5.43-1.78"/><path class="cls-19" d="M196.1,146.38c0-4.38,3.41-7.62,8.06-7.62s8.05,3.22,8.05,7.62-3.43,7.61-8.05,7.61-8.06-3.24-8.06-7.61m12.66,0a4.61,4.61,0,1,0-4.6,4.71,4.49,4.49,0,0,0,4.6-4.71"/><path class="cls-19" d="M224.17,153.74l-2.84-4.1h-3.14v4.1h-3.4V139h6.37c3.93,0,6.39,2,6.39,5.35a4.79,4.79,0,0,1-3,4.65l3.3,4.73Zm-3.2-12h-2.78v5.13H221c2.08,0,3.14-1,3.14-2.56s-1.06-2.57-3.14-2.57"/><path class="cls-19" d="M240.2,146.14h3.11v6a10.11,10.11,0,0,1-5.95,1.87c-4.63,0-8-3.18-8-7.61s3.4-7.62,8.1-7.62a7.83,7.83,0,0,1,6.16,2.55l-2.19,2a5,5,0,0,0-3.81-1.67,4.72,4.72,0,1,0,0,9.43,5.42,5.42,0,0,0,2.65-.63Z"/><path class="cls-19" d="M256.17,150.58h-6.83L248,153.74h-3.49L251.1,139h3.37l6.58,14.73h-3.57ZM255.1,148l-2.33-5.64L250.43,148Z"/><polygon class="cls-19" points="276.1 139.01 276.1 153.74 273.3 153.74 265.96 144.8 265.96 153.74 262.6 153.74 262.6 139.01 265.42 139.01 272.74 147.95 272.74 139.01 276.1 139.01"/><rect class="cls-19" x="279.6" y="139.01" width="3.41" height="14.73"/><polygon class="cls-19" points="298.43 150.96 298.43 153.74 285.56 153.74 285.56 151.53 293.63 141.79 285.72 141.79 285.72 139.01 298.11 139.01 298.11 141.22 290.06 150.96 298.43 150.96"/><path class="cls-19" d="M310.32,150.58h-6.84l-1.3,3.16h-3.49L305.25,139h3.36l6.59,14.73h-3.58ZM309.25,148l-2.34-5.64L304.58,148Z"/><path class="cls-19" d="M315.6,146.38c0-4.44,3.41-7.62,8-7.62a7.63,7.63,0,0,1,6.06,2.61l-2.19,2a4.73,4.73,0,0,0-3.7-1.73,4.72,4.72,0,0,0,0,9.43,4.69,4.69,0,0,0,3.7-1.75l2.19,2a7.56,7.56,0,0,1-6.08,2.63c-4.57,0-8-3.18-8-7.61"/><rect class="cls-19" x="331.96" y="139.01" width="3.41" height="14.73"/><path class="cls-19" d="M337.93,146.38c0-4.38,3.41-7.62,8.06-7.62s8.06,3.22,8.06,7.62S350.62,154,346,154s-8.06-3.24-8.06-7.61m12.67,0a4.61,4.61,0,1,0-4.61,4.71,4.5,4.5,0,0,0,4.61-4.71"/><polygon class="cls-19" points="370.12 139.01 370.12 153.74 367.32 153.74 359.99 144.8 359.99 153.74 356.62 153.74 356.62 139.01 359.44 139.01 366.76 147.95 366.76 139.01 370.12 139.01"/><path class="cls-19" d="M383.32,150.58h-6.84l-1.3,3.16h-3.49L378.25,139h3.37l6.58,14.73h-3.58ZM382.25,148l-2.34-5.64L377.58,148Z"/><polygon class="cls-19" points="389.74 139.01 393.15 139.01 393.15 150.96 400.53 150.96 400.53 153.74 389.74 153.74 389.74 139.01"/><polygon class="cls-19" points="413.85 151 413.85 153.74 402.45 153.74 402.45 139.01 413.58 139.01 413.58 141.75 405.84 141.75 405.84 144.94 412.68 144.94 412.68 147.6 405.84 147.6 405.84 151 413.85 151"/><path class="cls-19" d="M415.42,152.29l1.15-2.57a8.69,8.69,0,0,0,4.86,1.54c2,0,2.84-.68,2.84-1.58,0-2.76-8.56-.86-8.56-6.33,0-2.51,2-4.59,6.21-4.59a9.81,9.81,0,0,1,5.11,1.31L426,142.65a8.25,8.25,0,0,0-4.08-1.15c-2,0-2.79.75-2.79,1.68,0,2.71,8.56.84,8.56,6.25,0,2.46-2,4.56-6.25,4.56a10.45,10.45,0,0,1-6-1.7"/><path class="cls-20" d="M204.71,166.13l.13.37a9.15,9.15,0,0,1,2.49.65c.42.19,1.44,1.28-.13.76a7.6,7.6,0,0,0-2.33-.36,18.26,18.26,0,0,1-1.44,5.62c-1.07,2.51-2.25,5.28-2.48,7.51-.29,2.95,2.48,1.64,4.76-.08a22.15,22.15,0,0,0,5.49-6.33,64,64,0,0,1,4.32-6.59c.83-1,2.85-2.52,4.29-1.73.23.13.08.29,0,.29s-.24,0-.29,0c-1.52,0-4.32,4.47-7.74,8.89a37.19,37.19,0,0,1-5.71,6.07,7.45,7.45,0,0,1-4.6,1.94c-2.59,0-2.62-1.83-2-3.79s1.75-4.35,2.64-6.49a33.54,33.54,0,0,0,1.94-5.28c-3.12,0-6.94.91-6.81,3.16.06,1,1.16,1.31,1.57,1.57s.19.34-.07.26c-.61-.13-2-1-2-2.2a1.31,1.31,0,0,1-.11-.31c-.16-2.9,4.11-3.82,7.51-3.61a.66.66,0,0,0-.13-.31c-.21-.37.34-.61.7,0"/><path class="cls-20" d="M216.38,181.17c-.84.63-2.77,1.26-3.3-.31-.21-.6.24-2,.79-3.22-.24.29-.47.68-1,1.31-.26.29-.53,0-.29-.37a32.3,32.3,0,0,0,2-2.69.47.47,0,0,1,.06-.34c.28-.81.55-1.47.91-1.54s.79.05.92.31-.13.81-.53,1.62a14.55,14.55,0,0,0-1.56,3.79c-.19,1.13.34,1.73,1.2,1.29a15.93,15.93,0,0,0,3.9-3.64.19.19,0,0,1,.31.21,14.34,14.34,0,0,1-3.4,3.58m3.61-11.4a22.81,22.81,0,0,1-4.19,2c-.34,0-.21-.19-.1-.29s1.15-.79,1.44-1a12.51,12.51,0,0,0,2-1.68c.29-.13.63.08.76.11a.6.6,0,0,1,.16.86Z"/><path class="cls-20" d="M222.19,181.85c-2.51.45-4.4-.86-3.22-3.58.78-1.78,4.84-5.21,6.8-4.55a.9.9,0,0,1,.68,1.18c0,.15-.47,1.12-.65.88a.26.26,0,0,1-.11-.28,4.51,4.51,0,0,0,.13-.53c0-.23-.13-.52-.39-.52-1.33,0-4.58,2.67-5.28,5.05-.61,1.93.91,2.09,2.4,1.67a9.28,9.28,0,0,0,5.13-3.79c.13-.16.26,0,.31,0s.06.29,0,.39c-1.49,2-3.21,3.69-5.8,4.13"/><path class="cls-20" d="M233.77,174.19a22.91,22.91,0,0,1-3,.44c-.34.63-.66,1.08-.73,1.31a14.21,14.21,0,0,0-1.57,3.8c-.19,1.12.34,1.72,1.2,1.28a15.93,15.93,0,0,0,3.9-3.64.19.19,0,0,1,.31.21,14.17,14.17,0,0,1-3.4,3.58c-.84.63-2.77,1.26-3.3-.31-.21-.6.24-2,.79-3.22-.24.29-.47.68-1,1.31-.26.29-.53,0-.29-.37a32.3,32.3,0,0,0,2-2.69s.24-.47.58-1.1a3,3,0,0,1-.6.05.39.39,0,0,1-.37-.57c.21-.45.89-.45,1.39-.47,0-.05.05-.05.1-.05l1.31-2.44c.65-1.12.71-1.38,1.07-1.44a1.23,1.23,0,0,1,1.05.26c.24.32-.08.84-.23,1.08s-.4.23-.55.55L231.21,174l.34,0a16.49,16.49,0,0,1,2.46-.18c.31,0,.86.18-.24.44"/><path class="cls-20" d="M238,179.21c-.16-.55.21-1,.65-.84.71-1.41.5-2,.37-2.27-.29-.73.86-1,1.07-.29.37,1.07-.55,2.7-1.12,3.51a.64.64,0,0,0,.65.7c.84,0,1.7-1,2.22-1.51.32-.37.66-.76.92-1.13a.19.19,0,0,1,.31.21,8.19,8.19,0,0,1-.89,1.2c-.57.71-1.62,1.83-2.64,1.83a1.2,1.2,0,0,1-1.07-.65q-.51.56-1,1a3,3,0,0,1-3.46.52c-.86-.52-1.17-1.75-.7-3.37a7.84,7.84,0,0,1,2.3-3.43,3.24,3.24,0,0,1,2.93-1,1.1,1.1,0,0,1,.76,1.25c0,.42-.45.4-.45.19s0-.71-.49-.71c-1.15,0-3.67,2.67-4.08,5.05-.19,1,.13,1.91,1.09,1.91a4.12,4.12,0,0,0,2.73-2c0-.05-.08-.08-.08-.16"/><path class="cls-20" d="M242.3,178a21.38,21.38,0,0,0,2.43-3.69c-.39,0-.65-.31-.55-.63a4.79,4.79,0,0,1,2.12-2.22c.76-.34,1.31-.63.6.65l-1,1.63a25,25,0,0,0,2.75.05c1.57-.08.94.81,0,1.85a14.77,14.77,0,0,0-2.36,3.9c-.42,1.18,0,1.91.84,1.47a15.37,15.37,0,0,0,3.87-3.64c.13-.18.47,0,.34.21a14.17,14.17,0,0,1-3.4,3.58,3.67,3.67,0,0,1-2,.74,1.18,1.18,0,0,1-1.26-1c-.47-1.7,1.26-3.61,2.23-4.6.39-.45,1.59-1.6-.21-1.89a6.17,6.17,0,0,0-1.18-.13c-.94,1.33-1.83,2.7-2.88,4-.26.34-.7.21-.31-.29"/><path class="cls-20" d="M261.19,175.78c.7-1.3,1.36-2.45,1.64-3s.24-.92.19-1.08c.13-.86,2-3.11,3.37-3.11.26,0,1.31.26,1.52.89.08.42-.21.16-.34.16-1.54,0-3.69,3.19-5.36,6.14,3.5-.15,8.18-1.46,10.43-3.79,1.55-1.59,1.18-3.61-1.46-4.39-4.24-1.18-13.55.1-14.26,4.37-.21,1.25,1.18,1.59,1.7,1.91.32.23.16.44-.18.36-.81-.13-2.51-1.15-2.17-2.74,0,0,0-.29,0-.42.31-1.65,2.4-3,3.84-3.74a16.73,16.73,0,0,1,11-.66c2,.71,3.22,2.2,3.09,3.72-.24,2.87-3.9,4.52-7.25,5.28a26.5,26.5,0,0,1-5,.55c-.84,1.52-1.49,2.93-1.83,3.71-.6,1.49.26,1.39.86.68.39-.47.76-.91,1-.88s-.31.65-.34.67c-.39.58-1.12,1.84-1.83,1.84-.13,0-1-.13-1-.32-.13-1,1-3.5,2.22-5.73a3.54,3.54,0,0,1-.47,0c-.29,0-.6-.5.11-.42a4.7,4.7,0,0,0,.55,0"/><path class="cls-20" d="M270.16,180.65c-1.94-2.46,4-6.38,6-6.85a3.46,3.46,0,0,1,2.61.21.93.93,0,0,1,.45.7c0,.19,0,.19-.16.13a1.43,1.43,0,0,0-1.31-.49c-1.36,0-3.19,1-4.55,2.25-.73.68-2.9,3.16-2.09,4.31.37.52,1.65-.42,2-.7a33.2,33.2,0,0,0,2.54-2.31,24.22,24.22,0,0,1,2.59-2.59c.26,0,1.28.21,1.05.63a9.42,9.42,0,0,0-1.57,3.79c-.16,1.13.36,1.73,1.2,1.29a15.25,15.25,0,0,0,3.9-3.64.19.19,0,0,1,.31.21,13.81,13.81,0,0,1-3.4,3.58c-.84.63-2.77,1.26-3.3-.31a6.48,6.48,0,0,1,.42-3.19c-.44.21-2.93,3.87-5,3.87a2.33,2.33,0,0,1-1.67-.89"/><path class="cls-20" d="M283.42,179.11c-.16,1.28.21,2.69,1.73,1.83a15.08,15.08,0,0,0,3.84-3.56c.13-.18.45,0,.29.26a15.67,15.67,0,0,1-3.48,3.61,2.79,2.79,0,0,1-1.62.58,1.76,1.76,0,0,1-2-2.09c.16-2.62,3.32-8.87,5-11.12,1-1.28,2.17-2.85,4-2.85,1.18,0,2,.91,1.1,2.61a36,36,0,0,1-8.5,9.52,7.16,7.16,0,0,0-.34,1.21m.73-2.25c2.56-1.76,6-6.28,7.4-9,.71-1.28.11-1.88-1-1a16.75,16.75,0,0,0-4.06,5.13c-.28.52-1,1.86-1.57,3-.28.6-.52,1.23-.73,1.81"/><path class="cls-20" d="M288.26,180.65c-1.94-2.46,4-6.38,6-6.85a3.46,3.46,0,0,1,2.61.21.93.93,0,0,1,.45.7c0,.19,0,.19-.16.13a1.43,1.43,0,0,0-1.31-.49c-1.36,0-3.19,1-4.55,2.25-.73.68-2.9,3.16-2.09,4.31.37.52,1.65-.42,2-.7a33.2,33.2,0,0,0,2.54-2.31,24.22,24.22,0,0,1,2.59-2.59c.26,0,1.28.21,1.05.63a9.42,9.42,0,0,0-1.57,3.79c-.16,1.13.36,1.73,1.2,1.29a15.25,15.25,0,0,0,3.9-3.64.19.19,0,0,1,.31.21,13.81,13.81,0,0,1-3.4,3.58c-.84.63-2.77,1.26-3.3-.31a6.48,6.48,0,0,1,.42-3.19c-.44.21-2.93,3.87-5,3.87a2.33,2.33,0,0,1-1.67-.89"/><path class="cls-20" d="M303.64,181.85c-2.51.45-4.4-.86-3.22-3.58.78-1.78,4.84-5.21,6.8-4.55a.9.9,0,0,1,.68,1.18c0,.15-.47,1.12-.65.88a.26.26,0,0,1-.11-.28,4.51,4.51,0,0,0,.13-.53c0-.23-.13-.52-.39-.52-1.33,0-4.58,2.67-5.28,5.05-.6,1.93.91,2.09,2.4,1.67a9.28,9.28,0,0,0,5.13-3.79c.13-.16.26,0,.31,0s.06.29,0,.39c-1.49,2-3.21,3.69-5.8,4.13"/><path class="cls-20" d="M310.23,175.55c.29-.81.55-1.47.91-1.54s.79.05.92.31-.13.81-.52,1.62a14.56,14.56,0,0,0-1.57,3.8c-.19,1.12.34,1.72,1.2,1.28a15.93,15.93,0,0,0,3.9-3.64.19.19,0,0,1,.31.21,14.34,14.34,0,0,1-3.4,3.58c-.84.63-2.77,1.26-3.29-.31-.21-.6.23-2,.78-3.22-.24.29-.47.68-1,1.31-.26.29-.52,0-.29-.37.92-1.12,1.62-2.09,2-2.69a.41.41,0,0,1,.05-.34m2.09-2.9c-.47,0-1.12,0-1.12-.55a13.59,13.59,0,0,1,1.57-1.31c1.07-.86.42.05.42.57,0,.29-.61,1.29-.87,1.29"/><path class="cls-20" d="M319.49,179.21c-.16-.55.21-1,.65-.84.71-1.41.5-2,.37-2.27-.29-.73.86-1,1.07-.29.37,1.07-.55,2.7-1.12,3.51a.64.64,0,0,0,.65.7c.84,0,1.7-1,2.22-1.51.32-.37.66-.76.92-1.13a.19.19,0,0,1,.31.21,6.94,6.94,0,0,1-.89,1.2c-.57.71-1.62,1.83-2.64,1.83A1.2,1.2,0,0,1,320,180q-.51.56-1,1a3,3,0,0,1-3.45.52c-.87-.52-1.18-1.75-.71-3.37a7.84,7.84,0,0,1,2.3-3.43,3.24,3.24,0,0,1,2.93-1,1.1,1.1,0,0,1,.76,1.25c0,.42-.44.4-.44.19s0-.71-.5-.71c-1.15,0-3.66,2.67-4.08,5.05-.19,1,.13,1.91,1.1,1.91a4.12,4.12,0,0,0,2.72-2c0-.05-.08-.08-.08-.16"/><path class="cls-20" d="M324.17,181.51c-.39.53-.16,1.05.81.79,1.31-.39,3.25-1.88,3.25-3.4,0-.73-1.47-1.28-2-1.62a2.25,2.25,0,0,1-.89-.95c-.28.5-.7,1.13-1.17,1.81-.24.29-.55.05-.37-.24a10.39,10.39,0,0,0,1.41-2.46c.26-2,3.69-3.74,5.58-3.74,1.17,0,2.22.55,1.62,1.78a2,2,0,0,1-.81.89c-.14.11-.48-.05-.14-.39s.76-1.33,0-1.41a7.16,7.16,0,0,0-2.85.84,5.54,5.54,0,0,0-2.25,1.88c-.55.76-.44,1.28.29,1.72,1.78,1.05,4,1.68,2.06,3.85a7.2,7.2,0,0,1-3.66,1.91c-.49.1-1.59.26-1.88-.29-.18-.26,0-.7.34-1a4.39,4.39,0,0,1,1.25-.75c.19-.06.24.18.06.26a2,2,0,0,0-.71.57"/><rect class="cls-1" width="500" height="200"/><rect class="cls-1" width="500" height="200"/><rect class="cls-1" width="500" height="200"/></g></g></svg>